<?xml version="1.0" encoding="utf-8"?>
<!-- Generator: Adobe Illustrator 22.0.0, SVG Export Plug-In . SVG Version: 6.00 Build 0)  -->
<svg version="1.1" id="Layer_1" xmlns="http://www.w3.org/2000/svg" xmlns:xlink="http://www.w3.org/1999/xlink" x="0px" y="0px"
	 viewBox="0 0 620 329" style="enable-background:new 0 0 620 329;" xml:space="preserve">
<style type="text/css">
	.st0{opacity:0.2;clip-path:url(#SVGID_2_);fill:#C3D69B;enable-background:new    ;}
	.st1{opacity:0.2;clip-path:url(#SVGID_4_);fill:#C3D69B;enable-background:new    ;}
	.st2{clip-path:url(#SVGID_6_);fill:none;stroke:#77933C;stroke-width:3;stroke-dasharray:3,3;}
	.st3{clip-path:url(#SVGID_8_);fill:none;stroke:#77933C;stroke-width:3;stroke-dasharray:3,3;}
	.st4{clip-path:url(#SVGID_10_);fill:#C3D69B;}
	.st5{clip-path:url(#SVGID_12_);fill:#FFFFFF;}
	.st6{clip-path:url(#SVGID_14_);fill:none;stroke:#77933C;stroke-width:3;}
	.st7{opacity:0.2;clip-path:url(#SVGID_16_);fill:#C3D69B;enable-background:new    ;}
	.st8{opacity:0.2;clip-path:url(#SVGID_18_);fill:#C3D69B;enable-background:new    ;}
	.st9{clip-path:url(#SVGID_20_);fill:none;stroke:#77933C;stroke-width:3;stroke-dasharray:3,3;}
	.st10{clip-path:url(#SVGID_22_);fill:none;stroke:#77933C;stroke-width:3;stroke-dasharray:3,3;}
	.st11{clip-path:url(#SVGID_24_);fill:#C3D69B;}
	.st12{clip-path:url(#SVGID_26_);fill:#FFFFFF;}
	.st13{clip-path:url(#SVGID_28_);fill:none;stroke:#77933C;stroke-width:3;}
	.st14{opacity:0.2;clip-path:url(#SVGID_30_);fill:#FF0303;enable-background:new    ;}
	.st15{opacity:0.2;clip-path:url(#SVGID_32_);fill:#FF0303;enable-background:new    ;}
	.st16{clip-path:url(#SVGID_34_);fill:none;stroke:#FF0303;stroke-width:3;stroke-dasharray:3,3;}
	.st17{clip-path:url(#SVGID_36_);fill:none;stroke:#FF0303;stroke-width:3;stroke-dasharray:3,3;}
	.st18{clip-path:url(#SVGID_38_);fill:#FF0303;}
	.st19{clip-path:url(#SVGID_40_);fill:#FFFFFF;}
	.st20{clip-path:url(#SVGID_42_);fill:none;stroke:#FF0303;stroke-width:3;}
	.st21{clip-path:url(#SVGID_44_);fill:none;stroke:#558ED5;}
	.st22{clip-path:url(#SVGID_46_);fill:none;stroke:#558ED5;}
	.st23{clip-path:url(#SVGID_48_);fill:none;stroke:#558ED5;}
	.st24{clip-path:url(#SVGID_50_);fill:none;stroke:#558ED5;}
	.st25{clip-path:url(#SVGID_52_);fill:none;stroke:#558ED5;}
	.st26{clip-path:url(#SVGID_54_);fill:#DCE6F2;}
	.st27{clip-path:url(#SVGID_56_);fill:none;stroke:#558ED5;stroke-width:5;}
	.st28{clip-path:url(#SVGID_58_);fill:#376092;}
	.st29{clip-path:url(#SVGID_60_);fill:none;stroke:#558ED5;}
	.st30{clip-path:url(#SVGID_62_);fill:none;stroke:#558ED5;}
	.st31{clip-path:url(#SVGID_64_);fill:#DCE6F2;}
	.st32{clip-path:url(#SVGID_66_);fill:none;stroke:#558ED5;stroke-width:2;}
	.st33{clip-path:url(#SVGID_68_);fill:#17375E;}
	.st34{clip-path:url(#SVGID_70_);fill:none;stroke:#558ED5;}
	.st35{clip-path:url(#SVGID_72_);fill:none;stroke:#558ED5;}
	.st36{clip-path:url(#SVGID_74_);fill:none;stroke:#558ED5;stroke-width:3;}
	.st37{clip-path:url(#SVGID_76_);}
	.st38{clip-path:url(#SVGID_78_);fill:none;stroke:#558ED5;}
	.st39{clip-path:url(#SVGID_80_);fill:none;stroke:#558ED5;}
	.st40{clip-path:url(#SVGID_82_);fill:none;stroke:#558ED5;stroke-width:3;}
	.st41{clip-path:url(#SVGID_84_);}
	.st42{clip-path:url(#SVGID_86_);fill:none;stroke:#558ED5;stroke-width:3;}
	.st43{clip-path:url(#SVGID_88_);}
	.st44{clip-path:url(#SVGID_90_);fill:none;stroke:#558ED5;}
	.st45{clip-path:url(#SVGID_92_);fill:none;stroke:#558ED5;}
	.st46{clip-path:url(#SVGID_94_);fill:#DCE6F2;}
	.st47{clip-path:url(#SVGID_96_);fill:none;stroke:#558ED5;stroke-width:2;}
	.st48{clip-path:url(#SVGID_98_);fill:#17375E;}
	.st49{opacity:0.2;clip-path:url(#SVGID_100_);fill:#C3D69B;enable-background:new    ;}
	.st50{clip-path:url(#SVGID_102_);fill:none;stroke:#77933C;stroke-width:3;stroke-dasharray:3,3;}
	.st51{clip-path:url(#SVGID_104_);fill:none;stroke:#558ED5;}
	.st52{clip-path:url(#SVGID_106_);fill:none;stroke:#558ED5;}
	.st53{clip-path:url(#SVGID_108_);fill:none;stroke:#558ED5;stroke-width:3;}
	.st54{clip-path:url(#SVGID_110_);}
	.st55{clip-path:url(#SVGID_112_);fill:none;stroke:#558ED5;stroke-width:3;}
	.st56{clip-path:url(#SVGID_114_);}
	.st57{clip-path:url(#SVGID_116_);fill:#DCE6F2;}
	.st58{clip-path:url(#SVGID_118_);fill:none;stroke:#558ED5;stroke-width:2;}
	.st59{clip-path:url(#SVGID_120_);fill:#17375E;}
	.st60{clip-path:url(#SVGID_122_);fill:#00D156;}
	.st61{clip-path:url(#SVGID_124_);fill:#DCE6F2;}
	.st62{clip-path:url(#SVGID_126_);fill:none;stroke:#558ED5;stroke-width:2;}
	.st63{clip-path:url(#SVGID_128_);fill:#17375E;}
	.st64{clip-path:url(#SVGID_130_);fill:#00D156;}
	.st65{clip-path:url(#SVGID_132_);fill:none;stroke:#C3D69B;stroke-width:5;}
	.st66{clip-path:url(#SVGID_134_);fill:none;stroke:#558ED5;}
	.st67{clip-path:url(#SVGID_136_);fill:none;stroke:#558ED5;}
	.st68{clip-path:url(#SVGID_138_);fill:#77933C;}
	.st69{clip-path:url(#SVGID_140_);fill:#FFFFFF;}
	.st70{clip-path:url(#SVGID_142_);fill:#00D156;}
	.st71{clip-path:url(#SVGID_144_);fill:none;stroke:#558ED5;stroke-width:3;}
	.st72{clip-path:url(#SVGID_146_);}
	.st73{clip-path:url(#SVGID_148_);fill:#00D156;}
	.st74{clip-path:url(#SVGID_150_);fill:none;stroke:#77933C;stroke-width:3;stroke-dasharray:18,9;}
	.st75{clip-path:url(#SVGID_152_);fill:none;stroke:#77933C;stroke-width:3;stroke-dasharray:18,9;}
	.st76{clip-path:url(#SVGID_154_);fill:none;stroke:#77933C;stroke-width:3;stroke-dasharray:18,9;}
	.st77{clip-path:url(#SVGID_156_);fill:none;stroke:#77933C;stroke-width:3;stroke-dasharray:18,9;}
	
		.st78{opacity:9.803922e-02;clip-path:url(#SVGID_158_);fill:none;stroke:#77933C;stroke-width:3;stroke-dasharray:18,9;enable-background:new    ;}
	.st79{clip-path:url(#SVGID_160_);fill:#77933C;}
	.st80{clip-path:url(#SVGID_162_);fill:none;stroke:#77933C;stroke-width:3;}
	.st81{clip-path:url(#SVGID_164_);fill:#595959;}
	.st82{clip-path:url(#SVGID_166_);fill:none;stroke:#77933C;stroke-width:3;stroke-dasharray:18,9;}
	.st83{clip-path:url(#SVGID_168_);fill:#77933C;}
	.st84{clip-path:url(#SVGID_170_);fill:none;stroke:#77933C;stroke-width:3;}
</style>
<g>
	<defs>
		<rect id="SVGID_1_" x="266" y="241" width="59" height="25"/>
	</defs>
	<clipPath id="SVGID_2_">
		<use xlink:href="#SVGID_1_"  style="overflow:visible;"/>
	</clipPath>
	<path class="st0" d="M219,249c-4.4,0-8,3.6-8,8v46c0,4.4,3.6,8,8,8h94c4.4,0,8-3.6,8-8v-46c0-4.4-3.6-8-8-8H219z"/>
</g>
<g>
	<defs>
		<rect id="SVGID_3_" x="203" y="264" width="122" height="51"/>
	</defs>
	<clipPath id="SVGID_4_">
		<use xlink:href="#SVGID_3_"  style="overflow:visible;"/>
	</clipPath>
	<path class="st1" d="M219,249c-4.4,0-8,3.6-8,8v46c0,4.4,3.6,8,8,8h94c4.4,0,8-3.6,8-8v-46c0-4.4-3.6-8-8-8H219z"/>
</g>
<g>
	<defs>
		<rect id="SVGID_5_" x="266" y="241" width="59" height="25"/>
	</defs>
	<clipPath id="SVGID_6_">
		<use xlink:href="#SVGID_5_"  style="overflow:visible;"/>
	</clipPath>
	<path class="st2" d="M219,249c-4.4,0-8,3.6-8,8v46c0,4.4,3.6,8,8,8h94c4.4,0,8-3.6,8-8v-46c0-4.4-3.6-8-8-8H219z"/>
</g>
<g>
	<defs>
		<rect id="SVGID_7_" x="203" y="264" width="122" height="51"/>
	</defs>
	<clipPath id="SVGID_8_">
		<use xlink:href="#SVGID_7_"  style="overflow:visible;"/>
	</clipPath>
	<path class="st3" d="M219,249c-4.4,0-8,3.6-8,8v46c0,4.4,3.6,8,8,8h94c4.4,0,8-3.6,8-8v-46c0-4.4-3.6-8-8-8H219z"/>
</g>
<g>
	<defs>
		<rect id="SVGID_9_" x="203" y="241" width="65" height="25"/>
	</defs>
	<clipPath id="SVGID_10_">
		<use xlink:href="#SVGID_9_"  style="overflow:visible;"/>
	</clipPath>
	<path class="st4" d="M207,245h57v17h-57V245z"/>
</g>
<g>
	<defs>
		<rect id="SVGID_11_" x="203" y="241" width="65" height="25"/>
	</defs>
	<clipPath id="SVGID_12_">
		<use xlink:href="#SVGID_11_"  style="overflow:visible;"/>
	</clipPath>
	<path class="st5" d="M213.3,251.8c0,0.3-0.1,0.6-0.3,0.9s-0.5,0.4-0.9,0.6c-0.3,0.1-0.6,0.2-0.9,0.3s-0.7,0.1-1,0.2
		c0,0.5,0.1,0.9,0.3,1.2s0.5,0.4,0.8,0.4c0.3,0,0.6-0.1,0.9-0.2s0.5-0.4,0.7-0.7l0.3,0.2c-0.3,0.4-0.6,0.7-1,1s-0.8,0.4-1.2,0.4
		c-0.6,0-1-0.2-1.3-0.5s-0.5-0.8-0.5-1.4c0-0.4,0.1-0.8,0.2-1.2s0.3-0.7,0.6-1c0.2-0.3,0.5-0.5,0.9-0.7s0.7-0.3,1.2-0.3
		c0.5,0,0.8,0.1,1,0.3S213.3,251.5,213.3,251.8z M212.4,251.7c0-0.1,0-0.2-0.1-0.3s-0.1-0.1-0.1-0.2c-0.1,0-0.1-0.1-0.2-0.1
		s-0.1,0-0.2,0c-0.4,0-0.8,0.2-1.1,0.6s-0.5,1-0.6,1.6c0.2,0,0.5-0.1,0.8-0.1s0.5-0.1,0.7-0.2c0.3-0.1,0.5-0.3,0.6-0.5
		S212.4,252,212.4,251.7z M218.3,251.8c0,0.3-0.1,0.6-0.3,0.9s-0.5,0.4-0.9,0.6c-0.3,0.1-0.6,0.2-0.9,0.3s-0.7,0.1-1,0.2
		c0,0.5,0.1,0.9,0.3,1.2s0.5,0.4,0.8,0.4c0.3,0,0.6-0.1,0.9-0.2s0.5-0.4,0.7-0.7l0.3,0.2c-0.3,0.4-0.6,0.7-1,1s-0.8,0.4-1.2,0.4
		c-0.6,0-1-0.2-1.3-0.5s-0.5-0.8-0.5-1.4c0-0.4,0.1-0.8,0.2-1.2s0.3-0.7,0.6-1c0.2-0.3,0.5-0.5,0.9-0.7s0.7-0.3,1.2-0.3
		c0.5,0,0.8,0.1,1,0.3S218.3,251.5,218.3,251.8z M217.4,251.7c0-0.1,0-0.2-0.1-0.3s-0.1-0.1-0.1-0.2c-0.1,0-0.1-0.1-0.2-0.1
		s-0.1,0-0.2,0c-0.4,0-0.8,0.2-1.1,0.6s-0.5,1-0.6,1.6c0.2,0,0.5-0.1,0.8-0.1s0.5-0.1,0.7-0.2c0.3-0.1,0.5-0.3,0.6-0.5
		S217.4,252,217.4,251.7z M226.6,251.7c0,0.5-0.1,1-0.2,1.5s-0.3,0.9-0.6,1.3c-0.3,0.4-0.6,0.8-1,1s-0.7,0.3-1.2,0.3
		c-0.3,0-0.6-0.1-0.8-0.3s-0.4-0.4-0.5-0.7c-0.1,0.1-0.2,0.2-0.3,0.3c-0.1,0.1-0.2,0.2-0.4,0.3s-0.3,0.2-0.4,0.2s-0.3,0.1-0.5,0.1
		c-0.2,0-0.5,0-0.6-0.1s-0.3-0.2-0.4-0.3c-0.1-0.1-0.2-0.2-0.2-0.4s-0.1-0.3-0.1-0.5c0-0.1,0-0.1,0-0.2s0-0.2,0-0.2l0.4-1.5
		c0-0.1,0.1-0.3,0.1-0.4s0-0.2,0-0.3c0-0.2,0-0.3-0.1-0.4s-0.2-0.1-0.4-0.1c-0.1,0-0.2,0-0.3,0s-0.2,0-0.3,0.1l0.1-0.3
		c0.3-0.1,0.5-0.2,0.7-0.3s0.3-0.1,0.5-0.1c0.3,0,0.5,0.1,0.6,0.2s0.2,0.3,0.2,0.5c0,0.1,0,0.1,0,0.2s0,0.2-0.1,0.3l-0.5,1.8
		c0,0.1-0.1,0.2-0.1,0.4s0,0.2,0,0.3c0,0.2,0,0.4,0.1,0.6s0.3,0.2,0.5,0.2c0.2,0,0.4-0.1,0.6-0.2s0.4-0.3,0.6-0.5l0.9-3.7l0.8-0.1
		l0.1,0.1l-0.7,3c0,0.1,0,0.2-0.1,0.4s0,0.2,0,0.3c0,0.2,0,0.3,0.1,0.4s0.1,0.2,0.2,0.2c0.1,0,0.2,0.1,0.3,0.1s0.2,0,0.3,0
		c0.2,0,0.4-0.1,0.7-0.2s0.4-0.3,0.6-0.5c0.2-0.3,0.3-0.5,0.5-0.8s0.2-0.6,0.2-1c0-0.2,0-0.3-0.1-0.5s-0.1-0.2-0.2-0.3
		c-0.1-0.1-0.1-0.2-0.2-0.3s-0.1-0.2-0.1-0.4c0-0.2,0.1-0.3,0.2-0.4s0.3-0.1,0.4-0.1c0.2,0,0.3,0.1,0.5,0.2S226.6,251.4,226.6,251.7
		z M231.3,251.8c0,0.3-0.1,0.6-0.3,0.9s-0.5,0.4-0.9,0.6c-0.3,0.1-0.6,0.2-0.9,0.3s-0.7,0.1-1,0.2c0,0.5,0.1,0.9,0.3,1.2
		s0.5,0.4,0.8,0.4c0.3,0,0.6-0.1,0.9-0.2s0.5-0.4,0.7-0.7l0.3,0.2c-0.3,0.4-0.6,0.7-1,1s-0.8,0.4-1.2,0.4c-0.6,0-1-0.2-1.3-0.5
		s-0.5-0.8-0.5-1.4c0-0.4,0.1-0.8,0.2-1.2s0.3-0.7,0.6-1c0.2-0.3,0.5-0.5,0.9-0.7s0.7-0.3,1.2-0.3c0.5,0,0.8,0.1,1,0.3
		S231.3,251.5,231.3,251.8z M230.4,251.7c0-0.1,0-0.2-0.1-0.3s-0.1-0.1-0.1-0.2c-0.1,0-0.1-0.1-0.2-0.1s-0.1,0-0.2,0
		c-0.4,0-0.8,0.2-1.1,0.6s-0.5,1-0.6,1.6c0.2,0,0.5-0.1,0.8-0.1s0.5-0.1,0.7-0.2c0.3-0.1,0.5-0.3,0.6-0.5S230.4,252,230.4,251.7z
		 M237.3,255.1l-0.1,0.3c-0.3,0.1-0.5,0.2-0.7,0.3s-0.3,0.1-0.5,0.1c-0.3,0-0.5-0.1-0.6-0.2s-0.2-0.3-0.2-0.5c0-0.1,0-0.2,0-0.2
		s0-0.2,0.1-0.3l0.5-1.8c0-0.1,0.1-0.3,0.1-0.4s0-0.2,0-0.3c0-0.2-0.1-0.4-0.2-0.5s-0.3-0.2-0.5-0.2c-0.2,0-0.4,0.1-0.7,0.2
		s-0.5,0.3-0.7,0.6l-0.8,3.6h-0.9l0.7-3.2c0-0.1,0-0.2,0.1-0.3s0-0.3,0-0.4c0-0.2,0-0.3-0.1-0.4s-0.2-0.1-0.4-0.1
		c-0.1,0-0.2,0-0.3,0s-0.2,0-0.3,0.1l0.1-0.3c0.3-0.1,0.5-0.2,0.7-0.3s0.4-0.1,0.5-0.1c0.3,0,0.4,0.1,0.6,0.2s0.2,0.3,0.2,0.6h0
		c0.4-0.3,0.7-0.5,0.9-0.6s0.6-0.2,0.9-0.2c0.3,0,0.6,0.1,0.7,0.3s0.3,0.4,0.3,0.7c0,0.1,0,0.2,0,0.3s0,0.3-0.1,0.4l-0.4,1.6
		c0,0.1-0.1,0.2-0.1,0.4s0,0.2,0,0.3c0,0.2,0,0.3,0.1,0.4s0.2,0.1,0.4,0.1c0.1,0,0.2,0,0.3,0S237.3,255.2,237.3,255.1z M242.8,251.7
		c0,0.5-0.1,1-0.2,1.5s-0.4,1-0.6,1.3c-0.3,0.4-0.6,0.7-0.9,1s-0.8,0.4-1.2,0.4c-0.4,0-0.8-0.1-1-0.4s-0.4-0.6-0.4-0.9
		c0-0.1,0-0.2,0-0.3s0-0.2,0-0.2l0.4-1.6c0-0.1,0.1-0.3,0.1-0.4s0-0.2,0-0.3c0-0.2,0-0.3-0.1-0.4s-0.2-0.1-0.4-0.1
		c-0.1,0-0.2,0-0.3,0s-0.2,0.1-0.3,0.1l0.1-0.3c0.3-0.1,0.5-0.2,0.7-0.3s0.4-0.1,0.5-0.1c0.3,0,0.5,0.1,0.6,0.2s0.2,0.3,0.2,0.5
		c0,0.1,0,0.1,0,0.2s0,0.2-0.1,0.3l-0.5,1.8c0,0.1-0.1,0.2-0.1,0.4s0,0.2,0,0.2c0,0.2,0,0.3,0.1,0.4s0.1,0.2,0.2,0.2
		c0.1,0.1,0.2,0.1,0.3,0.1s0.2,0,0.3,0c0.2,0,0.5-0.1,0.7-0.2s0.4-0.3,0.6-0.5c0.2-0.2,0.3-0.5,0.5-0.8s0.2-0.6,0.2-1
		c0-0.2,0-0.3-0.1-0.5s-0.1-0.2-0.2-0.3c-0.1-0.1-0.1-0.2-0.2-0.3s-0.1-0.2-0.1-0.4c0-0.2,0.1-0.3,0.2-0.4s0.3-0.1,0.4-0.1
		c0.2,0,0.3,0.1,0.5,0.2S242.8,251.4,242.8,251.7z M245.7,248.2l-1.4,5.9c0,0.1-0.1,0.2-0.1,0.4s0,0.2,0,0.3c0,0.2,0,0.3,0.1,0.4
		s0.2,0.1,0.4,0.1c0.1,0,0.2,0,0.3,0s0.2,0,0.3-0.1l-0.1,0.3c-0.3,0.1-0.5,0.2-0.7,0.2s-0.3,0.1-0.5,0.1c-0.3,0-0.5-0.1-0.6-0.2
		s-0.2-0.3-0.2-0.5c0-0.1,0-0.2,0-0.2s0-0.2,0.1-0.3l1.2-5.1c0-0.1,0-0.2,0-0.2s0-0.1,0-0.1c0-0.1,0-0.2-0.1-0.3s-0.1-0.1-0.2-0.1
		c-0.1,0-0.2,0-0.3-0.1s-0.2,0-0.3,0l0.1-0.3L245.7,248.2L245.7,248.2z M248.4,255.2l-0.1,0.3c-0.3,0.1-0.5,0.2-0.7,0.3
		s-0.3,0.1-0.5,0.1c-0.3,0-0.5-0.1-0.6-0.2s-0.2-0.3-0.2-0.5c0-0.1,0-0.2,0-0.2s0-0.2,0.1-0.3l0.5-2.1c0-0.1,0.1-0.2,0.1-0.4
		s0-0.2,0-0.3c0-0.2,0-0.3-0.1-0.4s-0.2-0.1-0.4-0.1c-0.1,0-0.2,0-0.3,0s-0.2,0-0.3,0.1l0.1-0.3c0.3-0.1,0.5-0.2,0.7-0.3
		s0.4-0.1,0.5-0.1c0.3,0,0.5,0.1,0.6,0.2s0.2,0.3,0.2,0.5c0,0.1,0,0.1,0,0.2s0,0.2-0.1,0.3l-0.5,2.1c0,0.1-0.1,0.3-0.1,0.4
		s0,0.2,0,0.3c0,0.2,0,0.3,0.1,0.4s0.2,0.1,0.4,0.1c0.1,0,0.2,0,0.3,0S248.4,255.2,248.4,255.2z M248.8,248.9c0,0.2-0.1,0.3-0.2,0.5
		s-0.3,0.2-0.4,0.2c-0.2,0-0.3-0.1-0.4-0.2s-0.2-0.3-0.2-0.5c0-0.2,0.1-0.3,0.2-0.5s0.3-0.2,0.4-0.2c0.2,0,0.3,0.1,0.5,0.2
		S248.8,248.8,248.8,248.9z M253.9,252.6c0,0.4-0.1,0.8-0.2,1.2s-0.4,0.7-0.6,1c-0.3,0.3-0.6,0.5-0.9,0.7s-0.7,0.3-1.1,0.3
		c-0.3,0-0.5,0-0.7-0.1s-0.4-0.1-0.5-0.2c-0.2-0.1-0.3-0.2-0.4-0.3s-0.2-0.2-0.3-0.4l1.3-5.5c0-0.1,0-0.1,0-0.2s0-0.1,0-0.2
		c0-0.1,0-0.2-0.1-0.3s-0.1-0.1-0.2-0.1c-0.1,0-0.2,0-0.3-0.1s-0.2,0-0.3,0l0.1-0.3l1.8-0.1l0,0.1l-0.7,3.2h0
		c0.3-0.3,0.6-0.4,0.8-0.5s0.4-0.1,0.7-0.1c0.5,0,0.9,0.2,1.2,0.5S253.9,252.1,253.9,252.6z M252.9,252.7c0-0.2,0-0.3,0-0.5
		s-0.1-0.3-0.2-0.4c-0.1-0.1-0.2-0.2-0.3-0.3s-0.3-0.1-0.5-0.1c-0.1,0-0.2,0-0.3,0.1s-0.2,0.1-0.3,0.2c-0.1,0.1-0.2,0.1-0.3,0.2
		s-0.2,0.2-0.2,0.2l-0.6,2.9c0,0.1,0,0.1,0.1,0.2s0.1,0.1,0.2,0.2c0.1,0.1,0.2,0.1,0.3,0.2s0.2,0.1,0.4,0.1c0.3,0,0.5-0.1,0.7-0.2
		s0.4-0.4,0.6-0.6c0.2-0.3,0.3-0.6,0.4-0.9S252.9,253,252.9,252.7z"/>
</g>
<g>
	<defs>
		<rect id="SVGID_13_" x="203" y="241" width="65" height="25"/>
	</defs>
	<clipPath id="SVGID_14_">
		<use xlink:href="#SVGID_13_"  style="overflow:visible;"/>
	</clipPath>
	<rect x="205" y="243" class="st6" width="60" height="20"/>
</g>
<g>
	<defs>
		<rect id="SVGID_15_" x="266" y="159" width="62" height="25"/>
	</defs>
	<clipPath id="SVGID_16_">
		<use xlink:href="#SVGID_15_"  style="overflow:visible;"/>
	</clipPath>
	<path class="st7" d="M219,167c-4.4,0-8,3.6-8,8v46c0,4.4,3.6,8,8,8h97c4.4,0,8-3.6,8-8v-46c0-4.4-3.6-8-8-8H219z"/>
</g>
<g>
	<defs>
		<rect id="SVGID_17_" x="203" y="182" width="125" height="51"/>
	</defs>
	<clipPath id="SVGID_18_">
		<use xlink:href="#SVGID_17_"  style="overflow:visible;"/>
	</clipPath>
	<path class="st8" d="M219,167c-4.4,0-8,3.6-8,8v46c0,4.4,3.6,8,8,8h97c4.4,0,8-3.6,8-8v-46c0-4.4-3.6-8-8-8H219z"/>
</g>
<g>
	<defs>
		<rect id="SVGID_19_" x="266" y="159" width="62" height="25"/>
	</defs>
	<clipPath id="SVGID_20_">
		<use xlink:href="#SVGID_19_"  style="overflow:visible;"/>
	</clipPath>
	<path class="st9" d="M219,167c-4.4,0-8,3.6-8,8v46c0,4.4,3.6,8,8,8h97c4.4,0,8-3.6,8-8v-46c0-4.4-3.6-8-8-8H219z"/>
</g>
<g>
	<defs>
		<rect id="SVGID_21_" x="203" y="182" width="125" height="51"/>
	</defs>
	<clipPath id="SVGID_22_">
		<use xlink:href="#SVGID_21_"  style="overflow:visible;"/>
	</clipPath>
	<path class="st10" d="M219,167c-4.4,0-8,3.6-8,8v46c0,4.4,3.6,8,8,8h97c4.4,0,8-3.6,8-8v-46c0-4.4-3.6-8-8-8H219z"/>
</g>
<g>
	<defs>
		<rect id="SVGID_23_" x="203" y="159" width="65" height="25"/>
	</defs>
	<clipPath id="SVGID_24_">
		<use xlink:href="#SVGID_23_"  style="overflow:visible;"/>
	</clipPath>
	<path class="st11" d="M207,163h57v17h-57V163z"/>
</g>
<g>
	<defs>
		<rect id="SVGID_25_" x="203" y="159" width="65" height="25"/>
	</defs>
	<clipPath id="SVGID_26_">
		<use xlink:href="#SVGID_25_"  style="overflow:visible;"/>
	</clipPath>
	<path class="st12" d="M213.3,169.8c0,0.3-0.1,0.6-0.3,0.9s-0.5,0.4-0.9,0.6c-0.3,0.1-0.6,0.2-0.9,0.3s-0.7,0.1-1,0.2
		c0,0.5,0.1,0.9,0.3,1.2s0.5,0.4,0.8,0.4c0.3,0,0.6-0.1,0.9-0.2s0.5-0.4,0.7-0.7l0.3,0.2c-0.3,0.4-0.6,0.7-1,1s-0.8,0.4-1.2,0.4
		c-0.6,0-1-0.2-1.3-0.5s-0.5-0.8-0.5-1.4c0-0.4,0.1-0.8,0.2-1.2s0.3-0.7,0.6-1c0.2-0.3,0.5-0.5,0.9-0.7s0.7-0.3,1.2-0.3
		c0.5,0,0.8,0.1,1,0.3S213.3,169.5,213.3,169.8z M212.4,169.7c0-0.1,0-0.2-0.1-0.3s-0.1-0.1-0.1-0.2c-0.1,0-0.1-0.1-0.2-0.1
		s-0.1,0-0.2,0c-0.4,0-0.8,0.2-1.1,0.6s-0.5,1-0.6,1.6c0.2,0,0.5-0.1,0.8-0.1s0.5-0.1,0.7-0.2c0.3-0.1,0.5-0.3,0.6-0.5
		S212.4,170,212.4,169.7z M218.3,169.8c0,0.3-0.1,0.6-0.3,0.9s-0.5,0.4-0.9,0.6c-0.3,0.1-0.6,0.2-0.9,0.3s-0.7,0.1-1,0.2
		c0,0.5,0.1,0.9,0.3,1.2s0.5,0.4,0.8,0.4c0.3,0,0.6-0.1,0.9-0.2s0.5-0.4,0.7-0.7l0.3,0.2c-0.3,0.4-0.6,0.7-1,1s-0.8,0.4-1.2,0.4
		c-0.6,0-1-0.2-1.3-0.5s-0.5-0.8-0.5-1.4c0-0.4,0.1-0.8,0.2-1.2s0.3-0.7,0.6-1c0.2-0.3,0.5-0.5,0.9-0.7s0.7-0.3,1.2-0.3
		c0.5,0,0.8,0.1,1,0.3S218.3,169.5,218.3,169.8z M217.4,169.7c0-0.1,0-0.2-0.1-0.3s-0.1-0.1-0.1-0.2c-0.1,0-0.1-0.1-0.2-0.1
		s-0.1,0-0.2,0c-0.4,0-0.8,0.2-1.1,0.6s-0.5,1-0.6,1.6c0.2,0,0.5-0.1,0.8-0.1s0.5-0.1,0.7-0.2c0.3-0.1,0.5-0.3,0.6-0.5
		S217.4,170,217.4,169.7z M226.6,169.7c0,0.5-0.1,1-0.2,1.5s-0.3,0.9-0.6,1.3c-0.3,0.4-0.6,0.8-1,1s-0.7,0.3-1.2,0.3
		c-0.3,0-0.6-0.1-0.8-0.3s-0.4-0.4-0.5-0.7c-0.1,0.1-0.2,0.2-0.3,0.3c-0.1,0.1-0.2,0.2-0.4,0.3s-0.3,0.2-0.4,0.2s-0.3,0.1-0.5,0.1
		c-0.2,0-0.5,0-0.6-0.1s-0.3-0.2-0.4-0.3c-0.1-0.1-0.2-0.2-0.2-0.4s-0.1-0.3-0.1-0.5c0-0.1,0-0.1,0-0.2s0-0.2,0-0.2l0.4-1.5
		c0-0.1,0.1-0.3,0.1-0.4s0-0.2,0-0.3c0-0.2,0-0.3-0.1-0.4s-0.2-0.1-0.4-0.1c-0.1,0-0.2,0-0.3,0s-0.2,0-0.3,0.1l0.1-0.3
		c0.3-0.1,0.5-0.2,0.7-0.3s0.3-0.1,0.5-0.1c0.3,0,0.5,0.1,0.6,0.2s0.2,0.3,0.2,0.5c0,0.1,0,0.1,0,0.2s0,0.2-0.1,0.3l-0.5,1.8
		c0,0.1-0.1,0.2-0.1,0.4s0,0.2,0,0.3c0,0.2,0,0.4,0.1,0.6s0.3,0.2,0.5,0.2c0.2,0,0.4-0.1,0.6-0.2s0.4-0.3,0.6-0.5l0.9-3.7l0.8-0.1
		l0.1,0.1l-0.7,3c0,0.1,0,0.2-0.1,0.4s0,0.2,0,0.3c0,0.2,0,0.3,0.1,0.4s0.1,0.2,0.2,0.2c0.1,0,0.2,0.1,0.3,0.1s0.2,0,0.3,0
		c0.2,0,0.4-0.1,0.7-0.2s0.4-0.3,0.6-0.5c0.2-0.3,0.3-0.5,0.5-0.8s0.2-0.6,0.2-1c0-0.2,0-0.3-0.1-0.5s-0.1-0.2-0.2-0.3
		c-0.1-0.1-0.1-0.2-0.2-0.3s-0.1-0.2-0.1-0.4c0-0.2,0.1-0.3,0.2-0.4s0.3-0.1,0.4-0.1c0.2,0,0.3,0.1,0.5,0.2S226.6,169.4,226.6,169.7
		z M231.3,169.8c0,0.3-0.1,0.6-0.3,0.9s-0.5,0.4-0.9,0.6c-0.3,0.1-0.6,0.2-0.9,0.3s-0.7,0.1-1,0.2c0,0.5,0.1,0.9,0.3,1.2
		s0.5,0.4,0.8,0.4c0.3,0,0.6-0.1,0.9-0.2s0.5-0.4,0.7-0.7l0.3,0.2c-0.3,0.4-0.6,0.7-1,1s-0.8,0.4-1.2,0.4c-0.6,0-1-0.2-1.3-0.5
		s-0.5-0.8-0.5-1.4c0-0.4,0.1-0.8,0.2-1.2s0.3-0.7,0.6-1c0.2-0.3,0.5-0.5,0.9-0.7s0.7-0.3,1.2-0.3c0.5,0,0.8,0.1,1,0.3
		S231.3,169.5,231.3,169.8z M230.4,169.7c0-0.1,0-0.2-0.1-0.3s-0.1-0.1-0.1-0.2c-0.1,0-0.1-0.1-0.2-0.1s-0.1,0-0.2,0
		c-0.4,0-0.8,0.2-1.1,0.6s-0.5,1-0.6,1.6c0.2,0,0.5-0.1,0.8-0.1s0.5-0.1,0.7-0.2c0.3-0.1,0.5-0.3,0.6-0.5S230.4,170,230.4,169.7z
		 M237.3,173.1l-0.1,0.3c-0.3,0.1-0.5,0.2-0.7,0.3s-0.3,0.1-0.5,0.1c-0.3,0-0.5-0.1-0.6-0.2s-0.2-0.3-0.2-0.5c0-0.1,0-0.2,0-0.2
		s0-0.2,0.1-0.3l0.5-1.8c0-0.1,0.1-0.3,0.1-0.4s0-0.2,0-0.3c0-0.2-0.1-0.4-0.2-0.5s-0.3-0.2-0.5-0.2c-0.2,0-0.4,0.1-0.7,0.2
		s-0.5,0.3-0.7,0.6l-0.8,3.6h-0.9l0.7-3.2c0-0.1,0-0.2,0.1-0.3s0-0.3,0-0.4c0-0.2,0-0.3-0.1-0.4s-0.2-0.1-0.4-0.1
		c-0.1,0-0.2,0-0.3,0s-0.2,0-0.3,0.1l0.1-0.3c0.3-0.1,0.5-0.2,0.7-0.3s0.4-0.1,0.5-0.1c0.3,0,0.4,0.1,0.6,0.2s0.2,0.3,0.2,0.6h0
		c0.4-0.3,0.7-0.5,0.9-0.6s0.6-0.2,0.9-0.2c0.3,0,0.6,0.1,0.7,0.3s0.3,0.4,0.3,0.7c0,0.1,0,0.2,0,0.3s0,0.3-0.1,0.4l-0.4,1.6
		c0,0.1-0.1,0.2-0.1,0.4s0,0.2,0,0.3c0,0.2,0,0.3,0.1,0.4s0.2,0.1,0.4,0.1c0.1,0,0.2,0,0.3,0S237.3,173.2,237.3,173.1z M242.8,169.7
		c0,0.5-0.1,1-0.2,1.5s-0.4,1-0.6,1.3c-0.3,0.4-0.6,0.7-0.9,1s-0.8,0.4-1.2,0.4c-0.4,0-0.8-0.1-1-0.4s-0.4-0.6-0.4-0.9
		c0-0.1,0-0.2,0-0.3s0-0.2,0-0.2l0.4-1.6c0-0.1,0.1-0.3,0.1-0.4s0-0.2,0-0.3c0-0.2,0-0.3-0.1-0.4s-0.2-0.1-0.4-0.1
		c-0.1,0-0.2,0-0.3,0s-0.2,0.1-0.3,0.1l0.1-0.3c0.3-0.1,0.5-0.2,0.7-0.3s0.4-0.1,0.5-0.1c0.3,0,0.5,0.1,0.6,0.2s0.2,0.3,0.2,0.5
		c0,0.1,0,0.1,0,0.2s0,0.2-0.1,0.3l-0.5,1.8c0,0.1-0.1,0.2-0.1,0.4s0,0.2,0,0.2c0,0.2,0,0.3,0.1,0.4s0.1,0.2,0.2,0.2
		c0.1,0.1,0.2,0.1,0.3,0.1s0.2,0,0.3,0c0.2,0,0.5-0.1,0.7-0.2s0.4-0.3,0.6-0.5c0.2-0.2,0.3-0.5,0.5-0.8s0.2-0.6,0.2-1
		c0-0.2,0-0.3-0.1-0.5s-0.1-0.2-0.2-0.3c-0.1-0.1-0.1-0.2-0.2-0.3s-0.1-0.2-0.1-0.4c0-0.2,0.1-0.3,0.2-0.4s0.3-0.1,0.4-0.1
		c0.2,0,0.3,0.1,0.5,0.2S242.8,169.4,242.8,169.7z M245.7,166.2l-1.4,5.9c0,0.1-0.1,0.2-0.1,0.4s0,0.2,0,0.3c0,0.2,0,0.3,0.1,0.4
		s0.2,0.1,0.4,0.1c0.1,0,0.2,0,0.3,0s0.2,0,0.3-0.1l-0.1,0.3c-0.3,0.1-0.5,0.2-0.7,0.2s-0.3,0.1-0.5,0.1c-0.3,0-0.5-0.1-0.6-0.2
		s-0.2-0.3-0.2-0.5c0-0.1,0-0.2,0-0.2s0-0.2,0.1-0.3l1.2-5.1c0-0.1,0-0.2,0-0.2s0-0.1,0-0.1c0-0.1,0-0.2-0.1-0.3s-0.1-0.1-0.2-0.1
		c-0.1,0-0.2,0-0.3-0.1s-0.2,0-0.3,0l0.1-0.3L245.7,166.2L245.7,166.2z M248.4,173.2l-0.1,0.3c-0.3,0.1-0.5,0.2-0.7,0.3
		s-0.3,0.1-0.5,0.1c-0.3,0-0.5-0.1-0.6-0.2s-0.2-0.3-0.2-0.5c0-0.1,0-0.2,0-0.2s0-0.2,0.1-0.3l0.5-2.1c0-0.1,0.1-0.2,0.1-0.4
		s0-0.2,0-0.3c0-0.2,0-0.3-0.1-0.4s-0.2-0.1-0.4-0.1c-0.1,0-0.2,0-0.3,0s-0.2,0-0.3,0.1l0.1-0.3c0.3-0.1,0.5-0.2,0.7-0.3
		s0.4-0.1,0.5-0.1c0.3,0,0.5,0.1,0.6,0.2s0.2,0.3,0.2,0.5c0,0.1,0,0.1,0,0.2s0,0.2-0.1,0.3l-0.5,2.1c0,0.1-0.1,0.3-0.1,0.4
		s0,0.2,0,0.3c0,0.2,0,0.3,0.1,0.4s0.2,0.1,0.4,0.1c0.1,0,0.2,0,0.3,0S248.4,173.2,248.4,173.2z M248.8,166.9c0,0.2-0.1,0.3-0.2,0.5
		s-0.3,0.2-0.4,0.2c-0.2,0-0.3-0.1-0.4-0.2s-0.2-0.3-0.2-0.5c0-0.2,0.1-0.3,0.2-0.5s0.3-0.2,0.4-0.2c0.2,0,0.3,0.1,0.5,0.2
		S248.8,166.8,248.8,166.9z M253.9,170.6c0,0.4-0.1,0.8-0.2,1.2s-0.4,0.7-0.6,1c-0.3,0.3-0.6,0.5-0.9,0.7s-0.7,0.3-1.1,0.3
		c-0.3,0-0.5,0-0.7-0.1s-0.4-0.1-0.5-0.2c-0.2-0.1-0.3-0.2-0.4-0.3s-0.2-0.2-0.3-0.4l1.3-5.5c0-0.1,0-0.1,0-0.2s0-0.1,0-0.2
		c0-0.1,0-0.2-0.1-0.3s-0.1-0.1-0.2-0.1c-0.1,0-0.2,0-0.3-0.1s-0.2,0-0.3,0l0.1-0.3l1.8-0.1l0,0.1l-0.7,3.2h0
		c0.3-0.3,0.6-0.4,0.8-0.5s0.4-0.1,0.7-0.1c0.5,0,0.9,0.2,1.2,0.5S253.9,170.1,253.9,170.6z M252.9,170.7c0-0.2,0-0.3,0-0.5
		s-0.1-0.3-0.2-0.4c-0.1-0.1-0.2-0.2-0.3-0.3s-0.3-0.1-0.5-0.1c-0.1,0-0.2,0-0.3,0.1s-0.2,0.1-0.3,0.2c-0.1,0.1-0.2,0.1-0.3,0.2
		s-0.2,0.2-0.2,0.2l-0.6,2.9c0,0.1,0,0.1,0.1,0.2s0.1,0.1,0.2,0.2c0.1,0.1,0.2,0.1,0.3,0.2s0.2,0.1,0.4,0.1c0.3,0,0.5-0.1,0.7-0.2
		s0.4-0.4,0.6-0.6c0.2-0.3,0.3-0.6,0.4-0.9S252.9,171,252.9,170.7z"/>
</g>
<g>
	<defs>
		<rect id="SVGID_27_" x="203" y="159" width="65" height="25"/>
	</defs>
	<clipPath id="SVGID_28_">
		<use xlink:href="#SVGID_27_"  style="overflow:visible;"/>
	</clipPath>
	<rect x="205" y="161" class="st13" width="60" height="20"/>
</g>
<g>
	<defs>
		<rect id="SVGID_29_" x="278" y="14" width="328" height="25"/>
	</defs>
	<clipPath id="SVGID_30_">
		<use xlink:href="#SVGID_29_"  style="overflow:visible;"/>
	</clipPath>
	<path class="st14" d="M219,22c-4.4,0-8,3.6-8,8v52c0,4.4,3.6,8,8,8h375c4.4,0,8-3.6,8-8V30c0-4.4-3.6-8-8-8H219z"/>
</g>
<g>
	<defs>
		<rect id="SVGID_31_" x="203" y="37" width="403" height="57"/>
	</defs>
	<clipPath id="SVGID_32_">
		<use xlink:href="#SVGID_31_"  style="overflow:visible;"/>
	</clipPath>
	<path class="st15" d="M219,22c-4.4,0-8,3.6-8,8v52c0,4.4,3.6,8,8,8h375c4.4,0,8-3.6,8-8V30c0-4.4-3.6-8-8-8H219z"/>
</g>
<g>
	<defs>
		<rect id="SVGID_33_" x="278" y="14" width="328" height="25"/>
	</defs>
	<clipPath id="SVGID_34_">
		<use xlink:href="#SVGID_33_"  style="overflow:visible;"/>
	</clipPath>
	<path class="st16" d="M219,22c-4.4,0-8,3.6-8,8v52c0,4.4,3.6,8,8,8h375c4.4,0,8-3.6,8-8V30c0-4.4-3.6-8-8-8H219z"/>
</g>
<g>
	<defs>
		<rect id="SVGID_35_" x="203" y="37" width="403" height="57"/>
	</defs>
	<clipPath id="SVGID_36_">
		<use xlink:href="#SVGID_35_"  style="overflow:visible;"/>
	</clipPath>
	<path class="st17" d="M219,22c-4.4,0-8,3.6-8,8v52c0,4.4,3.6,8,8,8h375c4.4,0,8-3.6,8-8V30c0-4.4-3.6-8-8-8H219z"/>
</g>
<g>
	<defs>
		<rect id="SVGID_37_" x="203" y="14" width="77" height="25"/>
	</defs>
	<clipPath id="SVGID_38_">
		<use xlink:href="#SVGID_37_"  style="overflow:visible;"/>
	</clipPath>
	<path class="st18" d="M207,18h69v17h-69V18z"/>
</g>
<g>
	<defs>
		<rect id="SVGID_39_" x="203" y="14" width="77" height="25"/>
	</defs>
	<clipPath id="SVGID_40_">
		<use xlink:href="#SVGID_39_"  style="overflow:visible;"/>
	</clipPath>
	<path class="st19" d="M215.3,21.8l-0.4,1.9h-0.3c0-0.1,0-0.3,0-0.4s-0.1-0.3-0.1-0.5c-0.1-0.1-0.1-0.3-0.2-0.4s-0.2-0.2-0.3-0.2
		c-0.1,0-0.2,0-0.4,0s-0.3,0-0.4,0h-0.3l-1.3,5.6c0,0,0,0.1,0,0.1s0,0.1,0,0.1c0,0.1,0,0.1,0,0.2s0.1,0.1,0.2,0.1
		c0.1,0,0.2,0.1,0.4,0.1s0.3,0.1,0.4,0.1l-0.1,0.3h-3.3l0.1-0.3c0.1,0,0.2,0,0.4,0s0.3,0,0.4-0.1c0.1,0,0.2-0.1,0.3-0.2
		s0.1-0.2,0.1-0.3l1.3-5.6h-0.3c-0.1,0-0.2,0-0.4,0s-0.3,0-0.4,0c-0.1,0-0.2,0.1-0.4,0.2s-0.3,0.3-0.4,0.4c-0.1,0.2-0.3,0.3-0.4,0.5
		s-0.2,0.3-0.3,0.4h-0.3l0.4-1.9H215.3z M219.3,25.7c0,0.4-0.1,0.8-0.2,1.2s-0.3,0.7-0.6,1c-0.3,0.3-0.6,0.5-0.9,0.7
		s-0.8,0.3-1.2,0.3c-0.5,0-1-0.2-1.3-0.5s-0.5-0.8-0.5-1.4c0-0.4,0.1-0.8,0.2-1.2s0.3-0.7,0.6-1c0.2-0.3,0.5-0.5,0.9-0.7
		s0.7-0.3,1.2-0.3c0.6,0,1,0.2,1.4,0.5S219.3,25.1,219.3,25.7z M218.3,25.5c0-0.5-0.1-0.8-0.2-1s-0.4-0.3-0.7-0.3
		c-0.3,0-0.5,0.1-0.8,0.2s-0.4,0.4-0.6,0.8c-0.1,0.3-0.2,0.6-0.3,0.9s-0.1,0.7-0.1,1c0,0.5,0.1,0.8,0.2,1.1s0.4,0.4,0.7,0.4
		c0.3,0,0.5-0.1,0.8-0.3s0.4-0.4,0.5-0.7c0.1-0.3,0.2-0.6,0.3-0.9S218.3,25.9,218.3,25.5z M226.4,25.6c0,0.4-0.1,0.8-0.2,1.2
		s-0.4,0.7-0.6,1c-0.3,0.3-0.6,0.5-0.9,0.7s-0.7,0.3-1.1,0.3c-0.3,0-0.5,0-0.7-0.1s-0.4-0.1-0.5-0.2c-0.2-0.1-0.3-0.2-0.4-0.3
		c-0.1-0.1-0.2-0.2-0.3-0.4l1.3-5.5c0-0.1,0-0.1,0-0.2s0-0.1,0-0.2c0-0.1,0-0.2-0.1-0.3s-0.1-0.1-0.2-0.1c-0.1,0-0.2,0-0.3-0.1
		s-0.2,0-0.3,0l0.1-0.3l1.8-0.1l0,0.1l-0.7,3.2h0c0.3-0.3,0.6-0.4,0.8-0.5s0.4-0.1,0.7-0.1c0.5,0,0.9,0.2,1.2,0.5
		S226.4,25.1,226.4,25.6z M225.4,25.7c0-0.2,0-0.3,0-0.5s-0.1-0.3-0.2-0.4c-0.1-0.1-0.2-0.2-0.3-0.3s-0.3-0.1-0.5-0.1
		c-0.1,0-0.2,0-0.3,0.1s-0.2,0.1-0.3,0.2c-0.1,0.1-0.2,0.1-0.3,0.2s-0.2,0.2-0.2,0.2l-0.6,2.9c0,0.1,0,0.1,0.1,0.2s0.1,0.1,0.2,0.2
		c0.1,0.1,0.2,0.1,0.3,0.2s0.2,0.1,0.4,0.1c0.3,0,0.5-0.1,0.7-0.2s0.4-0.4,0.6-0.6c0.2-0.3,0.3-0.6,0.4-0.9S225.4,26,225.4,25.7z
		 M231.8,24.8c0,0.3-0.1,0.6-0.3,0.9s-0.5,0.4-0.9,0.6c-0.3,0.1-0.6,0.2-0.9,0.3s-0.7,0.1-1,0.2c0,0.5,0.1,0.9,0.3,1.2
		s0.5,0.4,0.8,0.4c0.3,0,0.6-0.1,0.9-0.2s0.5-0.4,0.7-0.7l0.3,0.2c-0.3,0.4-0.6,0.7-1,1s-0.8,0.4-1.2,0.4c-0.6,0-1-0.2-1.3-0.5
		s-0.5-0.8-0.5-1.4c0-0.4,0.1-0.8,0.2-1.2s0.3-0.7,0.6-1c0.2-0.3,0.5-0.5,0.9-0.7s0.7-0.3,1.2-0.3c0.5,0,0.8,0.1,1,0.3
		S231.8,24.5,231.8,24.8z M230.9,24.7c0-0.1,0-0.2-0.1-0.3s-0.1-0.1-0.1-0.2c-0.1,0-0.1-0.1-0.2-0.1s-0.1,0-0.2,0
		c-0.4,0-0.8,0.2-1.1,0.6s-0.5,1-0.6,1.6c0.2,0,0.5-0.1,0.8-0.1s0.5-0.1,0.7-0.2c0.3-0.1,0.5-0.3,0.6-0.5S230.9,25,230.9,24.7z
		 M238.9,24.6c0,0.1,0,0.2,0,0.3s-0.1,0.2-0.1,0.3c-0.1,0.1-0.1,0.2-0.2,0.2s-0.2,0.1-0.3,0.1c-0.2,0-0.3,0-0.4-0.1
		s-0.1-0.2-0.1-0.3c0-0.1,0-0.2,0.1-0.3s0.1-0.2,0.2-0.4c0,0-0.1,0-0.2,0s-0.2,0.1-0.3,0.1s-0.3,0.2-0.4,0.3s-0.3,0.3-0.5,0.5
		l-0.8,3.5h-0.9l0.7-3.2c0-0.1,0-0.2,0.1-0.4s0-0.3,0-0.3c0-0.2,0-0.3-0.1-0.4s-0.2-0.1-0.4-0.1c-0.1,0-0.2,0-0.3,0s-0.2,0-0.3,0.1
		l0.1-0.3c0.3-0.1,0.5-0.2,0.7-0.3s0.4-0.1,0.5-0.1c0.3,0,0.4,0.1,0.6,0.2s0.2,0.4,0.2,0.6h0c0.4-0.3,0.7-0.6,0.9-0.7
		s0.4-0.2,0.6-0.2c0.1,0,0.2,0,0.3,0s0.2,0.1,0.2,0.1c0.1,0.1,0.1,0.1,0.2,0.2S238.9,24.4,238.9,24.6z M243.8,24.8
		c0,0.3-0.1,0.6-0.3,0.9s-0.5,0.4-0.9,0.6c-0.3,0.1-0.6,0.2-0.9,0.3s-0.7,0.1-1,0.2c0,0.5,0.1,0.9,0.3,1.2s0.5,0.4,0.8,0.4
		c0.3,0,0.6-0.1,0.9-0.2s0.5-0.4,0.7-0.7l0.3,0.2c-0.3,0.4-0.6,0.7-1,1s-0.8,0.4-1.2,0.4c-0.6,0-1-0.2-1.3-0.5s-0.5-0.8-0.5-1.4
		c0-0.4,0.1-0.8,0.2-1.2s0.3-0.7,0.6-1c0.2-0.3,0.5-0.5,0.9-0.7s0.7-0.3,1.2-0.3c0.5,0,0.8,0.1,1,0.3S243.8,24.5,243.8,24.8z
		 M242.9,24.7c0-0.1,0-0.2-0.1-0.3s-0.1-0.1-0.1-0.2c-0.1,0-0.1-0.1-0.2-0.1s-0.1,0-0.2,0c-0.4,0-0.8,0.2-1.1,0.6s-0.5,1-0.6,1.6
		c0.2,0,0.5-0.1,0.8-0.1s0.5-0.1,0.7-0.2c0.3-0.1,0.5-0.3,0.6-0.5S242.9,25,242.9,24.7z M245.7,28.8c-0.3,0-0.5-0.1-0.7-0.2
		s-0.2-0.3-0.2-0.5c0-0.1,0-0.1,0-0.2s0-0.1,0-0.2l0.8-3.3h-0.9l0.1-0.4h0.9l0.3-1.4h0.9l-0.3,1.4h1.4l-0.1,0.4h-1.4l-0.6,2.7
		c0,0.1-0.1,0.2-0.1,0.4s0,0.2,0,0.3c0,0.2,0,0.3,0.1,0.4s0.3,0.1,0.5,0.1c0.1,0,0.2,0,0.4,0s0.3,0,0.4-0.1l-0.1,0.4
		c-0.2,0.1-0.4,0.2-0.6,0.2S246,28.8,245.7,28.8z M249.9,28.2l-0.1,0.3c-0.3,0.1-0.5,0.2-0.7,0.3s-0.3,0.1-0.5,0.1
		c-0.3,0-0.5-0.1-0.6-0.2s-0.2-0.3-0.2-0.5c0-0.1,0-0.2,0-0.2s0-0.2,0.1-0.3l0.5-2.1c0-0.1,0.1-0.2,0.1-0.4s0-0.2,0-0.3
		c0-0.2,0-0.3-0.1-0.4s-0.2-0.1-0.4-0.1c-0.1,0-0.2,0-0.3,0s-0.2,0-0.3,0.1l0.1-0.3c0.3-0.1,0.5-0.2,0.7-0.3s0.4-0.1,0.5-0.1
		c0.3,0,0.5,0.1,0.6,0.2s0.2,0.3,0.2,0.5c0,0.1,0,0.1,0,0.2s0,0.2-0.1,0.3l-0.5,2.1c0,0.1-0.1,0.3-0.1,0.4s0,0.2,0,0.3
		c0,0.2,0,0.3,0.1,0.4s0.2,0.1,0.4,0.1c0.1,0,0.2,0,0.3,0S249.9,28.2,249.9,28.2z M250.3,21.9c0,0.2-0.1,0.3-0.2,0.5
		s-0.3,0.2-0.4,0.2c-0.2,0-0.3-0.1-0.4-0.2S249,22.1,249,22c0-0.2,0.1-0.3,0.2-0.5s0.3-0.2,0.4-0.2c0.2,0,0.3,0.1,0.5,0.2
		S250.3,21.8,250.3,21.9z M254.9,24.6c0,0.1,0,0.2,0,0.3s-0.1,0.2-0.1,0.3c-0.1,0.1-0.1,0.2-0.2,0.2s-0.2,0.1-0.3,0.1
		c-0.2,0-0.3,0-0.4-0.1s-0.1-0.2-0.1-0.3c0-0.1,0-0.2,0.1-0.3s0.1-0.2,0.2-0.4c0,0-0.1,0-0.2,0s-0.2,0.1-0.3,0.1s-0.3,0.2-0.4,0.3
		s-0.3,0.3-0.5,0.5l-0.8,3.5h-0.9l0.7-3.2c0-0.1,0-0.2,0.1-0.4s0-0.3,0-0.3c0-0.2,0-0.3-0.1-0.4s-0.2-0.1-0.4-0.1
		c-0.1,0-0.2,0-0.3,0s-0.2,0-0.3,0.1l0.1-0.3c0.3-0.1,0.5-0.2,0.7-0.3s0.4-0.1,0.5-0.1c0.3,0,0.4,0.1,0.6,0.2s0.2,0.4,0.2,0.6h0
		c0.4-0.3,0.7-0.6,0.9-0.7s0.4-0.2,0.6-0.2c0.1,0,0.2,0,0.3,0s0.2,0.1,0.2,0.1c0.1,0.1,0.1,0.1,0.2,0.2S254.9,24.4,254.9,24.6z
		 M259.8,24.8c0,0.3-0.1,0.6-0.3,0.9s-0.5,0.4-0.9,0.6c-0.3,0.1-0.6,0.2-0.9,0.3s-0.7,0.1-1,0.2c0,0.5,0.1,0.9,0.3,1.2
		s0.5,0.4,0.8,0.4c0.3,0,0.6-0.1,0.9-0.2s0.5-0.4,0.7-0.7l0.3,0.2c-0.3,0.4-0.6,0.7-1,1s-0.8,0.4-1.2,0.4c-0.6,0-1-0.2-1.3-0.5
		c-0.3-0.3-0.5-0.8-0.5-1.4c0-0.4,0.1-0.8,0.2-1.2s0.3-0.7,0.6-1c0.2-0.3,0.5-0.5,0.9-0.7s0.7-0.3,1.2-0.3c0.5,0,0.8,0.1,1,0.3
		S259.8,24.5,259.8,24.8z M258.9,24.7c0-0.1,0-0.2-0.1-0.3s-0.1-0.1-0.1-0.2c-0.1,0-0.1-0.1-0.2-0.1s-0.1,0-0.2,0
		c-0.4,0-0.8,0.2-1.1,0.6s-0.5,1-0.6,1.6c0.2,0,0.5-0.1,0.8-0.1s0.5-0.1,0.7-0.2c0.3-0.1,0.5-0.3,0.6-0.5S258.9,25,258.9,24.7z
		 M263.7,28L263.7,28c-0.1,0.1-0.2,0.1-0.3,0.2s-0.2,0.2-0.4,0.3c-0.2,0.1-0.3,0.2-0.4,0.2s-0.3,0.1-0.5,0.1c-0.5,0-0.8-0.2-1.1-0.5
		s-0.4-0.8-0.4-1.4c0-0.4,0.1-0.8,0.2-1.2s0.3-0.7,0.6-1c0.2-0.3,0.5-0.5,0.9-0.7s0.7-0.3,1.1-0.3c0.2,0,0.4,0,0.7,0.1
		s0.4,0.1,0.5,0.2l0.4-1.7c0-0.1,0-0.2,0-0.2s0-0.1,0-0.2c0-0.1,0-0.2-0.1-0.3s-0.1-0.1-0.2-0.1c-0.1,0-0.2,0-0.3-0.1s-0.3,0-0.4,0
		l0.1-0.3l2-0.1l0,0.1l-1.4,5.9c0,0.1-0.1,0.2-0.1,0.4s0,0.2,0,0.3c0,0.2,0,0.3,0.1,0.4s0.2,0.1,0.4,0.1c0.1,0,0.1,0,0.3,0
		s0.2,0,0.3-0.1l-0.1,0.3c-0.3,0.1-0.5,0.2-0.7,0.3s-0.3,0.1-0.5,0.1c-0.2,0-0.4-0.1-0.6-0.2S263.7,28.3,263.7,28z M264.4,24.9
		c0-0.1,0-0.2-0.1-0.3s-0.1-0.2-0.2-0.2c-0.1-0.1-0.2-0.1-0.3-0.2s-0.3-0.1-0.4-0.1c-0.3,0-0.5,0.1-0.7,0.2s-0.4,0.4-0.6,0.6
		c-0.2,0.3-0.3,0.6-0.4,0.9s-0.1,0.7-0.1,1.1c0,0.2,0,0.4,0,0.5s0.1,0.3,0.1,0.4c0.1,0.1,0.1,0.2,0.3,0.3s0.3,0.1,0.5,0.1
		c0.2,0,0.4-0.1,0.6-0.2s0.4-0.3,0.7-0.6L264.4,24.9z"/>
</g>
<g>
	<defs>
		<rect id="SVGID_41_" x="203" y="14" width="77" height="25"/>
	</defs>
	<clipPath id="SVGID_42_">
		<use xlink:href="#SVGID_41_"  style="overflow:visible;"/>
	</clipPath>
	<rect x="205" y="16" class="st20" width="72" height="20"/>
</g>
<g>
	<defs>
		<path id="SVGID_43_" d="M15,15h590v299H15V15z M26,120c-4.4,0-8,3.6-8,8v44c0,4.4,3.6,8,8,8h135c4.4,0,8-3.6,8-8v-44
			c0-4.4-3.6-8-8-8H26z"/>
	</defs>
	<clipPath id="SVGID_44_">
		<use xlink:href="#SVGID_43_"  style="overflow:visible;"/>
	</clipPath>
	<path class="st21" d="M179,150V71c0-4.4,3.6-8,8-8h33"/>
</g>
<g>
	<defs>
		<path id="SVGID_45_" d="M15,15h590v299H15V15z M26,120c-4.4,0-8,3.6-8,8v44c0,4.4,3.6,8,8,8h135c4.4,0,8-3.6,8-8v-44
			c0-4.4-3.6-8-8-8H26z"/>
	</defs>
	<clipPath id="SVGID_46_">
		<use xlink:href="#SVGID_45_"  style="overflow:visible;"/>
	</clipPath>
	<path class="st22" d="M179,150v-14c0-4.4,3.6-8,8-8h18"/>
</g>
<g>
	<defs>
		<path id="SVGID_47_" d="M15,15h590v299H15V15z M26,120c-4.4,0-8,3.6-8,8v44c0,4.4,3.6,8,8,8h135c4.4,0,8-3.6,8-8v-44
			c0-4.4-3.6-8-8-8H26z"/>
	</defs>
	<clipPath id="SVGID_48_">
		<use xlink:href="#SVGID_47_"  style="overflow:visible;"/>
	</clipPath>
	<path class="st23" d="M179,150v44c0,4.4,3.6,8,8,8h33"/>
</g>
<g>
	<defs>
		<path id="SVGID_49_" d="M15,15h590v299H15V15z M26,120c-4.4,0-8,3.6-8,8v44c0,4.4,3.6,8,8,8h135c4.4,0,8-3.6,8-8v-44
			c0-4.4-3.6-8-8-8H26z"/>
	</defs>
	<clipPath id="SVGID_50_">
		<use xlink:href="#SVGID_49_"  style="overflow:visible;"/>
	</clipPath>
	<path class="st24" d="M179,150v126c0,4.4,3.6,8,8,8h33"/>
</g>
<g>
	<defs>
		<rect id="SVGID_51_" x="14" y="14" width="592" height="301"/>
	</defs>
	<clipPath id="SVGID_52_">
		<use xlink:href="#SVGID_51_"  style="overflow:visible;"/>
	</clipPath>
	<path class="st25" d="M169,150h10"/>
</g>
<g>
	<defs>
		<rect id="SVGID_53_" x="14" y="116" width="160" height="69"/>
	</defs>
	<clipPath id="SVGID_54_">
		<use xlink:href="#SVGID_53_"  style="overflow:visible;"/>
	</clipPath>
	<path class="st26" d="M26,120c-4.4,0-8,3.6-8,8v44c0,4.4,3.6,8,8,8h135c4.4,0,8-3.6,8-8v-44c0-4.4-3.6-8-8-8H26z"/>
</g>
<g>
	<defs>
		<rect id="SVGID_55_" x="14" y="116" width="160" height="69"/>
	</defs>
	<clipPath id="SVGID_56_">
		<use xlink:href="#SVGID_55_"  style="overflow:visible;"/>
	</clipPath>
	<path class="st27" d="M26,120c-4.4,0-8,3.6-8,8v44c0,4.4,3.6,8,8,8h135c4.4,0,8-3.6,8-8v-44c0-4.4-3.6-8-8-8H26z"/>
</g>
<g>
	<defs>
		<rect id="SVGID_57_" x="50" y="136" width="88" height="29"/>
	</defs>
	<clipPath id="SVGID_58_">
		<use xlink:href="#SVGID_57_"  style="overflow:visible;"/>
	</clipPath>
	<path class="st28" d="M62.2,153.7c0,1.2-0.4,2.1-1.3,2.7s-2,1-3.5,1c-1.4,0-2.6-0.3-3.6-0.8v-2.5c0.9,0.4,1.6,0.7,2.2,0.8
		s1.1,0.2,1.6,0.2c0.6,0,1.1-0.1,1.4-0.3s0.5-0.6,0.5-1c0-0.3-0.1-0.5-0.2-0.7s-0.3-0.4-0.6-0.6s-0.8-0.5-1.7-0.9
		c-0.8-0.4-1.4-0.7-1.8-1.1s-0.7-0.7-0.9-1.2s-0.4-1-0.4-1.6c0-1.1,0.4-2,1.2-2.7s1.8-1,3.2-1c0.7,0,1.3,0.1,1.9,0.2
		s1.2,0.4,1.9,0.7l-0.9,2.1c-0.7-0.3-1.3-0.5-1.7-0.6s-0.9-0.2-1.3-0.2c-0.5,0-0.9,0.1-1.2,0.4s-0.4,0.6-0.4,0.9
		c0,0.2,0.1,0.4,0.2,0.6s0.3,0.4,0.5,0.5s0.8,0.5,1.7,0.9c1.2,0.6,2,1.1,2.5,1.7S62.2,152.8,62.2,153.7z M68.4,149.1
		c-0.6,0-1,0.2-1.3,0.5s-0.5,0.9-0.6,1.5h3.8c0-0.7-0.2-1.2-0.5-1.5S68.9,149.1,68.4,149.1z M68.7,157.4c-1.6,0-2.8-0.4-3.7-1.3
		s-1.3-2.1-1.3-3.7c0-1.6,0.4-2.9,1.2-3.8s2-1.3,3.4-1.3c1.4,0,2.5,0.4,3.2,1.2s1.2,1.9,1.2,3.3v1.3h-6.3c0,0.8,0.3,1.4,0.7,1.8
		s1,0.6,1.8,0.6c0.6,0,1.2-0.1,1.7-0.2s1.1-0.3,1.7-0.6v2.1c-0.5,0.2-1,0.4-1.5,0.5S69.5,157.4,68.7,157.4z M79,149.1
		c-0.6,0-1,0.2-1.3,0.5s-0.5,0.9-0.6,1.5h3.8c0-0.7-0.2-1.2-0.5-1.5S79.6,149.1,79,149.1z M79.4,157.4c-1.6,0-2.8-0.4-3.7-1.3
		s-1.3-2.1-1.3-3.7c0-1.6,0.4-2.9,1.2-3.8s2-1.3,3.4-1.3c1.4,0,2.5,0.4,3.2,1.2s1.2,1.9,1.2,3.3v1.3H77c0,0.8,0.3,1.4,0.7,1.8
		s1,0.6,1.8,0.6c0.6,0,1.2-0.1,1.7-0.2s1.1-0.3,1.7-0.6v2.1c-0.5,0.2-1,0.4-1.5,0.5S80.1,157.4,79.4,157.4z M88.7,157.4
		c-1.2,0-2.1-0.4-2.7-1.3s-1-2.1-1-3.7c0-1.6,0.3-2.9,1-3.8s1.6-1.3,2.8-1.3c1.2,0,2.2,0.5,2.8,1.4h0.1c-0.1-0.7-0.2-1.4-0.2-2v-3.1
		h2.7v13.7h-2.1l-0.5-1.3h-0.1C90.9,156.9,89.9,157.4,88.7,157.4z M89.6,155.3c0.7,0,1.2-0.2,1.5-0.6s0.5-1.1,0.5-2v-0.3
		c0-1.1-0.2-1.8-0.5-2.3s-0.9-0.7-1.6-0.7c-0.6,0-1.1,0.3-1.4,0.8s-0.5,1.2-0.5,2.2s0.2,1.7,0.5,2.2S89,155.3,89.6,155.3z
		 M97.2,157.2v-12.8h2.7V155h5.2v2.2H97.2z M107,144.9c0-0.9,0.5-1.3,1.5-1.3s1.5,0.4,1.5,1.3c0,0.4-0.1,0.7-0.4,1s-0.6,0.3-1.1,0.3
		C107.5,146.2,107,145.8,107,144.9z M109.8,157.2h-2.7v-9.8h2.7V157.2z M121.7,157.2H119v-5.7c0-0.7-0.1-1.2-0.4-1.6
		s-0.7-0.5-1.2-0.5c-0.8,0-1.3,0.3-1.6,0.8s-0.5,1.3-0.5,2.5v4.6h-2.7v-9.8h2l0.4,1.3h0.1c0.3-0.5,0.7-0.8,1.2-1.1s1.1-0.4,1.8-0.4
		c1.1,0,2,0.3,2.6,0.9s0.9,1.5,0.9,2.7V157.2z M127,151.9l1.2-1.5l2.8-3h3l-3.9,4.3l4.1,5.6h-3.1l-2.8-4l-1.2,0.9v3.1h-2.7v-13.7
		h2.7v6.1L127,151.9L127,151.9z"/>
</g>
<g>
	<defs>
		<path id="SVGID_59_" d="M219,38h376v45H219V38z M225,45c-2.8,0-5,2.2-5,5v26c0,2.8,2.2,5,5,5h86c2.8,0,5-2.2,5-5V50
			c0-2.8-2.2-5-5-5H225z"/>
	</defs>
	<clipPath id="SVGID_60_">
		<use xlink:href="#SVGID_59_"  style="overflow:visible;"/>
	</clipPath>
	<path class="st29" d="M329,63L329,63h10"/>
</g>
<g>
	<defs>
		<rect id="SVGID_61_" x="218" y="37" width="378" height="47"/>
	</defs>
	<clipPath id="SVGID_62_">
		<use xlink:href="#SVGID_61_"  style="overflow:visible;"/>
	</clipPath>
	<path class="st30" d="M316,63h13"/>
</g>
<g>
	<defs>
		<rect id="SVGID_63_" x="218" y="43" width="101" height="41"/>
	</defs>
	<clipPath id="SVGID_64_">
		<use xlink:href="#SVGID_63_"  style="overflow:visible;"/>
	</clipPath>
	<path class="st31" d="M225,45c-2.8,0-5,2.2-5,5v26c0,2.8,2.2,5,5,5h86c2.8,0,5-2.2,5-5V50c0-2.8-2.2-5-5-5H225z"/>
</g>
<g>
	<defs>
		<rect id="SVGID_65_" x="218" y="43" width="101" height="41"/>
	</defs>
	<clipPath id="SVGID_66_">
		<use xlink:href="#SVGID_65_"  style="overflow:visible;"/>
	</clipPath>
	<path class="st32" d="M225,45c-2.8,0-5,2.2-5,5v26c0,2.8,2.2,5,5,5h86c2.8,0,5-2.2,5-5V50c0-2.8-2.2-5-5-5H225z"/>
</g>
<g>
	<defs>
		<rect id="SVGID_67_" x="232" y="52" width="73" height="23"/>
	</defs>
	<clipPath id="SVGID_68_">
		<use xlink:href="#SVGID_67_"  style="overflow:visible;"/>
	</clipPath>
	<path class="st33" d="M240,65c0,0.6-0.2,1.1-0.7,1.5s-1.2,0.5-2,0.5c-0.9,0-1.6-0.1-2.2-0.4v-1c0.3,0.2,0.7,0.3,1.1,0.4
		s0.8,0.1,1.1,0.1c0.6,0,1-0.1,1.3-0.3s0.4-0.4,0.4-0.8c0-0.3-0.1-0.5-0.4-0.7s-0.7-0.4-1.4-0.7c-0.6-0.2-1.1-0.5-1.4-0.6
		s-0.5-0.4-0.6-0.6s-0.2-0.5-0.2-0.8c0-0.6,0.2-1,0.7-1.3s1.1-0.5,1.9-0.5c0.7,0,1.5,0.2,2.2,0.5l-0.4,0.9c-0.7-0.3-1.3-0.4-1.9-0.4
		c-0.5,0-0.9,0.1-1.1,0.2s-0.4,0.4-0.4,0.6c0,0.2,0,0.3,0.1,0.5s0.2,0.3,0.5,0.4s0.6,0.3,1.2,0.5c0.8,0.3,1.4,0.6,1.7,0.9
		S240,64.5,240,65z M244.3,67c-1,0-1.8-0.3-2.3-0.9s-0.8-1.5-0.8-2.6c0-1.2,0.3-2.1,0.8-2.7s1.4-1,2.4-1c0.3,0,0.7,0,1,0.1
		s0.6,0.2,0.8,0.3l-0.3,0.9c-0.2-0.1-0.5-0.2-0.8-0.2s-0.5-0.1-0.7-0.1c-1.4,0-2.1,0.9-2.1,2.7c0,0.9,0.2,1.5,0.5,2s0.9,0.7,1.5,0.7
		c0.6,0,1.2-0.1,1.8-0.4v0.9C245.5,66.9,245,67,244.3,67z M250.4,67c-1,0-1.8-0.3-2.4-0.9s-0.9-1.5-0.9-2.6c0-1.1,0.3-2,0.8-2.7
		s1.3-1,2.2-1c0.9,0,1.6,0.3,2.1,0.9s0.8,1.3,0.8,2.3v0.7h-4.8c0,0.8,0.2,1.4,0.6,1.9s0.9,0.6,1.7,0.6c0.7,0,1.5-0.2,2.2-0.5v0.9
		c-0.4,0.2-0.7,0.3-1.1,0.3S250.9,67,250.4,67z M250.1,60.7c-0.6,0-1,0.2-1.3,0.5s-0.5,0.9-0.6,1.5h3.6c0-0.7-0.1-1.2-0.4-1.5
		S250.7,60.7,250.1,60.7z M259.2,66.9v-4.5c0-0.6-0.1-1-0.4-1.3s-0.7-0.4-1.2-0.4c-0.7,0-1.3,0.2-1.6,0.6c-0.3,0.4-0.5,1-0.5,1.9
		v3.6h-1.1v-7h0.9l0.2,1h0.1c0.2-0.3,0.5-0.6,0.9-0.8s0.8-0.3,1.3-0.3c0.8,0,1.5,0.2,1.9,0.6s0.6,1.1,0.6,1.9v4.5H259.2z M264,66.9
		l-2.6-7h1.1L264,64c0.3,1,0.5,1.6,0.6,1.9h0.1c0-0.2,0.2-0.7,0.4-1.4s0.8-2.2,1.7-4.6h1.1l-2.6,7H264z M272.4,67
		c-1,0-1.8-0.3-2.4-0.9s-0.9-1.5-0.9-2.6c0-1.1,0.3-2,0.8-2.7s1.3-1,2.2-1c0.9,0,1.6,0.3,2.1,0.9s0.8,1.3,0.8,2.3v0.7h-4.8
		c0,0.8,0.2,1.4,0.6,1.9s0.9,0.6,1.7,0.6c0.7,0,1.5-0.2,2.2-0.5v0.9c-0.4,0.2-0.7,0.3-1.1,0.3S272.9,67,272.4,67z M272.1,60.7
		c-0.6,0-1,0.2-1.3,0.5s-0.5,0.9-0.6,1.5h3.6c0-0.7-0.1-1.2-0.4-1.5S272.7,60.7,272.1,60.7z M277.5,66.9h-1.1V57h1.1V66.9z
		 M285.5,63.4c0,1.1-0.3,2-0.9,2.7s-1.4,1-2.4,1c-0.6,0-1.2-0.1-1.7-0.4s-0.9-0.7-1.1-1.3s-0.4-1.2-0.4-1.9c0-1.1,0.3-2,0.9-2.7
		s1.4-0.9,2.4-0.9c1,0,1.7,0.3,2.3,1S285.5,62.3,285.5,63.4z M280.2,63.4c0,0.9,0.2,1.6,0.5,2s0.9,0.7,1.6,0.7s1.2-0.2,1.6-0.7
		s0.5-1.1,0.5-2c0-0.9-0.2-1.6-0.5-2s-0.9-0.7-1.6-0.7c-0.7,0-1.2,0.2-1.6,0.7S280.2,62.5,280.2,63.4z M290.7,67
		c-0.5,0-0.9-0.1-1.2-0.3s-0.7-0.4-0.9-0.8h-0.1c0.1,0.4,0.1,0.8,0.1,1.2V70h-1.1V59.9h0.9l0.1,1h0.1c0.3-0.4,0.6-0.7,0.9-0.8
		s0.8-0.3,1.2-0.3c0.9,0,1.6,0.3,2.1,0.9s0.8,1.5,0.8,2.7c0,1.1-0.3,2-0.8,2.7S291.6,67,290.7,67z M290.6,60.7
		c-0.7,0-1.2,0.2-1.5,0.6s-0.5,1-0.5,1.9v0.2c0,1,0.2,1.7,0.5,2.1s0.8,0.6,1.6,0.6c0.6,0,1.1-0.2,1.4-0.7s0.5-1.2,0.5-2
		c0-0.9-0.2-1.5-0.5-2S291.2,60.7,290.6,60.7z M298.4,67c-1,0-1.8-0.3-2.4-0.9s-0.9-1.5-0.9-2.6c0-1.1,0.3-2,0.8-2.7s1.3-1,2.2-1
		c0.9,0,1.6,0.3,2.1,0.9s0.8,1.3,0.8,2.3v0.7h-4.8c0,0.8,0.2,1.4,0.6,1.9s0.9,0.6,1.7,0.6c0.7,0,1.5-0.2,2.2-0.5v0.9
		c-0.4,0.2-0.7,0.3-1.1,0.3S298.9,67,298.4,67z M298.1,60.7c-0.6,0-1,0.2-1.3,0.5s-0.5,0.9-0.6,1.5h3.6c0-0.7-0.1-1.2-0.4-1.5
		S298.7,60.7,298.1,60.7z"/>
</g>
<g>
	<defs>
		<path id="SVGID_69_" d="M337,38h258v27H337V38z M339,40v22h63V40H339z"/>
	</defs>
	<clipPath id="SVGID_70_">
		<use xlink:href="#SVGID_69_"  style="overflow:visible;"/>
	</clipPath>
	<path class="st34" d="M415,63c2.4,0,6.1,0,11,0"/>
</g>
<g>
	<defs>
		<rect id="SVGID_71_" x="336" y="37" width="260" height="29"/>
	</defs>
	<clipPath id="SVGID_72_">
		<use xlink:href="#SVGID_71_"  style="overflow:visible;"/>
	</clipPath>
	<path class="st35" d="M402,63h13"/>
</g>
<g>
	<defs>
		<rect id="SVGID_73_" x="336" y="37" width="70" height="29"/>
	</defs>
	<clipPath id="SVGID_74_">
		<use xlink:href="#SVGID_73_"  style="overflow:visible;"/>
	</clipPath>
	<path class="st36" d="M339,63h63H339z"/>
</g>
<g>
	<defs>
		<rect id="SVGID_75_" x="348" y="42" width="46" height="19"/>
	</defs>
	<clipPath id="SVGID_76_">
		<use xlink:href="#SVGID_75_"  style="overflow:visible;"/>
	</clipPath>
	<path class="st37" d="M354.4,51.6c0,0.5-0.2,0.9-0.6,1.2s-0.9,0.4-1.6,0.4c-0.7,0-1.3-0.1-1.7-0.3V52c0.3,0.1,0.5,0.2,0.8,0.3
		s0.6,0.1,0.9,0.1c0.4,0,0.7-0.1,1-0.2s0.3-0.3,0.3-0.6c0-0.2-0.1-0.4-0.3-0.5s-0.5-0.3-1.1-0.5c-0.5-0.2-0.9-0.3-1.1-0.5
		s-0.4-0.3-0.5-0.5s-0.2-0.4-0.2-0.6c0-0.4,0.2-0.8,0.5-1s0.8-0.4,1.5-0.4c0.6,0,1.1,0.1,1.7,0.4l-0.3,0.7c-0.5-0.2-1-0.3-1.5-0.3
		c-0.4,0-0.7,0.1-0.9,0.2s-0.3,0.3-0.3,0.5c0,0.1,0,0.3,0.1,0.4s0.2,0.2,0.4,0.3s0.5,0.2,0.9,0.4c0.6,0.2,1.1,0.5,1.3,0.7
		S354.4,51.2,354.4,51.6z M358.1,53.1c-0.8,0-1.4-0.2-1.8-0.7s-0.6-1.2-0.6-2c0-0.9,0.2-1.6,0.6-2.1s1-0.7,1.8-0.7
		c0.3,0,0.5,0,0.8,0.1s0.5,0.1,0.6,0.2l-0.2,0.7c-0.2-0.1-0.4-0.1-0.6-0.2s-0.4-0.1-0.6-0.1c-1.1,0-1.6,0.7-1.6,2.1
		c0,0.7,0.1,1.2,0.4,1.5s0.7,0.5,1.2,0.5c0.4,0,0.9-0.1,1.4-0.3v0.7C359.1,53,358.7,53.1,358.1,53.1z M362.2,53l-2-5.4h0.9l1.2,3.2
		c0.3,0.7,0.4,1.2,0.5,1.4h0c0-0.2,0.1-0.5,0.3-1.1s0.6-1.7,1.3-3.5h0.9l-2,5.4H362.2z M369.4,51.6c0,0.5-0.2,0.9-0.6,1.2
		s-0.9,0.4-1.6,0.4c-0.7,0-1.3-0.1-1.7-0.3V52c0.3,0.1,0.5,0.2,0.8,0.3s0.6,0.1,0.9,0.1c0.4,0,0.7-0.1,1-0.2s0.3-0.3,0.3-0.6
		c0-0.2-0.1-0.4-0.3-0.5s-0.5-0.3-1.1-0.5c-0.5-0.2-0.9-0.3-1.1-0.5s-0.4-0.3-0.5-0.5s-0.2-0.4-0.2-0.6c0-0.4,0.2-0.8,0.5-1
		s0.8-0.4,1.5-0.4c0.6,0,1.1,0.1,1.7,0.4l-0.3,0.7c-0.5-0.2-1-0.3-1.5-0.3c-0.4,0-0.7,0.1-0.9,0.2s-0.3,0.3-0.3,0.5
		c0,0.1,0,0.3,0.1,0.4s0.2,0.2,0.4,0.3s0.5,0.2,0.9,0.4c0.6,0.2,1.1,0.5,1.3,0.7S369.4,51.2,369.4,51.6z M377.8,53v-3.5
		c0-0.4-0.1-0.7-0.3-1s-0.5-0.3-0.8-0.3c-0.5,0-0.9,0.1-1.1,0.4s-0.4,0.7-0.4,1.3v3h-0.8v-3.5c0-0.4-0.1-0.7-0.3-1s-0.5-0.3-0.9-0.3
		c-0.5,0-0.9,0.2-1.1,0.5s-0.4,0.8-0.4,1.5V53H371v-5.4h0.7l0.1,0.7h0c0.2-0.3,0.4-0.5,0.6-0.6s0.6-0.2,0.9-0.2
		c0.8,0,1.4,0.3,1.6,0.9h0c0.2-0.3,0.4-0.5,0.7-0.7s0.6-0.2,1-0.2c0.6,0,1.1,0.2,1.4,0.5s0.5,0.8,0.5,1.5V53H377.8z M383.3,53
		l-0.2-0.8h0c-0.3,0.3-0.5,0.6-0.8,0.7s-0.6,0.2-1,0.2c-0.5,0-0.9-0.1-1.2-0.4s-0.5-0.7-0.5-1.2c0-1.1,0.9-1.6,2.6-1.7l0.9,0v-0.3
		c0-0.4-0.1-0.7-0.3-0.9s-0.5-0.3-0.9-0.3c-0.4,0-1,0.1-1.5,0.4l-0.2-0.6c0.3-0.1,0.6-0.3,0.9-0.3s0.6-0.1,0.9-0.1
		c0.6,0,1.1,0.1,1.4,0.4s0.5,0.7,0.5,1.4V53H383.3z M381.4,52.5c0.5,0,0.9-0.1,1.2-0.4s0.4-0.7,0.4-1.2v-0.5l-0.8,0
		c-0.6,0-1.1,0.1-1.4,0.3s-0.4,0.5-0.4,0.8c0,0.3,0.1,0.5,0.3,0.7S381.1,52.5,381.4,52.5z M390.4,47.7v0.5l-1,0.1
		c0.1,0.1,0.2,0.3,0.2,0.4s0.1,0.4,0.1,0.6c0,0.5-0.2,0.9-0.5,1.3s-0.8,0.5-1.5,0.5c-0.2,0-0.3,0-0.4,0c-0.3,0.2-0.5,0.4-0.5,0.7
		c0,0.1,0.1,0.3,0.2,0.3s0.3,0.1,0.6,0.1h0.9c0.6,0,1,0.1,1.3,0.4s0.5,0.6,0.5,1.1c0,0.6-0.2,1-0.7,1.4s-1.2,0.5-2.1,0.5
		c-0.7,0-1.2-0.1-1.6-0.4s-0.6-0.6-0.6-1.1c0-0.3,0.1-0.6,0.3-0.8s0.5-0.4,0.9-0.5c-0.1-0.1-0.3-0.2-0.3-0.3S386,52,386,51.9
		c0-0.2,0.1-0.4,0.2-0.5s0.3-0.3,0.5-0.4c-0.3-0.1-0.5-0.3-0.7-0.6s-0.3-0.6-0.3-0.9c0-0.6,0.2-1,0.5-1.4s0.8-0.5,1.5-0.5
		c0.3,0,0.5,0,0.8,0.1H390.4z M386.1,53.9c0,0.3,0.1,0.5,0.4,0.7s0.6,0.2,1,0.2c0.7,0,1.2-0.1,1.5-0.3s0.5-0.5,0.5-0.8
		c0-0.3-0.1-0.5-0.3-0.6s-0.5-0.2-1-0.2h-1c-0.4,0-0.7,0.1-0.9,0.3S386.1,53.6,386.1,53.9z M386.5,49.4c0,0.4,0.1,0.7,0.3,0.8
		s0.5,0.3,0.9,0.3c0.8,0,1.2-0.4,1.2-1.2c0-0.8-0.4-1.2-1.2-1.2c-0.4,0-0.7,0.1-0.9,0.3S386.5,49,386.5,49.4z"/>
</g>
<g>
	<defs>
		<path id="SVGID_77_" d="M424,38h171v27H424V38z M426,40v22h77V40H426z"/>
	</defs>
	<clipPath id="SVGID_78_">
		<use xlink:href="#SVGID_77_"  style="overflow:visible;"/>
	</clipPath>
	<path class="st38" d="M516,63c2.4,0,6.1,0,11,0"/>
</g>
<g>
	<defs>
		<rect id="SVGID_79_" x="423" y="37" width="173" height="29"/>
	</defs>
	<clipPath id="SVGID_80_">
		<use xlink:href="#SVGID_79_"  style="overflow:visible;"/>
	</clipPath>
	<path class="st39" d="M503,63h13"/>
</g>
<g>
	<defs>
		<rect id="SVGID_81_" x="423" y="37" width="84" height="29"/>
	</defs>
	<clipPath id="SVGID_82_">
		<use xlink:href="#SVGID_81_"  style="overflow:visible;"/>
	</clipPath>
	<path class="st40" d="M426,63h77H426z"/>
</g>
<g>
	<defs>
		<rect id="SVGID_83_" x="435" y="42" width="60" height="19"/>
	</defs>
	<clipPath id="SVGID_84_">
		<use xlink:href="#SVGID_83_"  style="overflow:visible;"/>
	</clipPath>
	<path class="st41" d="M441.4,52.6c0,0.5-0.2,0.9-0.6,1.2s-0.9,0.4-1.6,0.4c-0.7,0-1.3-0.1-1.7-0.3v-0.8c0.3,0.1,0.5,0.2,0.8,0.3
		s0.6,0.1,0.9,0.1c0.4,0,0.7-0.1,1-0.2s0.3-0.3,0.3-0.6c0-0.2-0.1-0.4-0.3-0.5s-0.5-0.3-1.1-0.5c-0.5-0.2-0.9-0.3-1.1-0.5
		s-0.4-0.3-0.5-0.5s-0.2-0.4-0.2-0.6c0-0.4,0.2-0.8,0.5-1s0.8-0.4,1.5-0.4c0.6,0,1.1,0.1,1.7,0.4l-0.3,0.7c-0.5-0.2-1-0.3-1.5-0.3
		c-0.4,0-0.7,0.1-0.9,0.2s-0.3,0.3-0.3,0.5c0,0.1,0,0.3,0.1,0.4s0.2,0.2,0.4,0.3s0.5,0.2,0.9,0.4c0.6,0.2,1.1,0.5,1.3,0.7
		S441.4,52.3,441.4,52.6z M445.1,54.2c-0.8,0-1.4-0.2-1.8-0.7s-0.6-1.2-0.6-2c0-0.9,0.2-1.6,0.6-2.1s1-0.7,1.8-0.7
		c0.3,0,0.5,0,0.8,0.1s0.5,0.1,0.6,0.2l-0.2,0.7c-0.2-0.1-0.4-0.1-0.6-0.2s-0.4-0.1-0.6-0.1c-1.1,0-1.6,0.7-1.6,2.1
		c0,0.7,0.1,1.2,0.4,1.5s0.7,0.5,1.2,0.5c0.4,0,0.9-0.1,1.4-0.3v0.7C446.1,54.1,445.7,54.2,445.1,54.2z M449.2,54.1l-2-5.4h0.9
		l1.2,3.2c0.3,0.7,0.4,1.2,0.5,1.4h0c0-0.2,0.1-0.5,0.3-1.1s0.6-1.7,1.3-3.5h0.9l-2,5.4H449.2z M456.4,52.6c0,0.5-0.2,0.9-0.6,1.2
		s-0.9,0.4-1.6,0.4c-0.7,0-1.3-0.1-1.7-0.3v-0.8c0.3,0.1,0.5,0.2,0.8,0.3s0.6,0.1,0.9,0.1c0.4,0,0.7-0.1,1-0.2s0.3-0.3,0.3-0.6
		c0-0.2-0.1-0.4-0.3-0.5s-0.5-0.3-1.1-0.5c-0.5-0.2-0.9-0.3-1.1-0.5s-0.4-0.3-0.5-0.5s-0.2-0.4-0.2-0.6c0-0.4,0.2-0.8,0.5-1
		s0.8-0.4,1.5-0.4c0.6,0,1.1,0.1,1.7,0.4l-0.3,0.7c-0.5-0.2-1-0.3-1.5-0.3c-0.4,0-0.7,0.1-0.9,0.2s-0.3,0.3-0.3,0.5
		c0,0.1,0,0.3,0.1,0.4s0.2,0.2,0.4,0.3s0.5,0.2,0.9,0.4c0.6,0.2,1.1,0.5,1.3,0.7S456.4,52.3,456.4,52.6z M464.8,54.1v-3.5
		c0-0.4-0.1-0.7-0.3-1s-0.5-0.3-0.8-0.3c-0.5,0-0.9,0.1-1.1,0.4s-0.4,0.7-0.4,1.3v3h-0.8v-3.5c0-0.4-0.1-0.7-0.3-1s-0.5-0.3-0.9-0.3
		c-0.5,0-0.9,0.2-1.1,0.5s-0.4,0.8-0.4,1.5v2.8H458v-5.4h0.7l0.1,0.7h0c0.2-0.3,0.4-0.5,0.6-0.6s0.6-0.2,0.9-0.2
		c0.8,0,1.4,0.3,1.6,0.9h0c0.2-0.3,0.4-0.5,0.7-0.7s0.6-0.2,1-0.2c0.6,0,1.1,0.2,1.4,0.5s0.5,0.8,0.5,1.5v3.5H464.8z M470.3,54.1
		l-0.2-0.8h0c-0.3,0.3-0.5,0.6-0.8,0.7s-0.6,0.2-1,0.2c-0.5,0-0.9-0.1-1.2-0.4s-0.5-0.7-0.5-1.2c0-1.1,0.9-1.6,2.6-1.7l0.9,0v-0.3
		c0-0.4-0.1-0.7-0.3-0.9s-0.5-0.3-0.9-0.3c-0.4,0-1,0.1-1.5,0.4l-0.2-0.6c0.3-0.1,0.6-0.3,0.9-0.3s0.6-0.1,0.9-0.1
		c0.6,0,1.1,0.1,1.4,0.4s0.5,0.7,0.5,1.4v3.7H470.3z M468.4,53.5c0.5,0,0.9-0.1,1.2-0.4s0.4-0.7,0.4-1.2v-0.5l-0.8,0
		c-0.6,0-1.1,0.1-1.4,0.3s-0.4,0.5-0.4,0.8c0,0.3,0.1,0.5,0.3,0.7S468.1,53.5,468.4,53.5z M477.4,48.7v0.5l-1,0.1
		c0.1,0.1,0.2,0.3,0.2,0.4s0.1,0.4,0.1,0.6c0,0.5-0.2,0.9-0.5,1.3s-0.8,0.5-1.5,0.5c-0.2,0-0.3,0-0.4,0c-0.3,0.2-0.5,0.4-0.5,0.7
		c0,0.1,0.1,0.3,0.2,0.3s0.3,0.1,0.6,0.1h0.9c0.6,0,1,0.1,1.3,0.4s0.5,0.6,0.5,1.1c0,0.6-0.2,1-0.7,1.4s-1.2,0.5-2.1,0.5
		c-0.7,0-1.2-0.1-1.6-0.4s-0.6-0.6-0.6-1.1c0-0.3,0.1-0.6,0.3-0.8s0.5-0.4,0.9-0.5c-0.1-0.1-0.3-0.2-0.3-0.3s-0.1-0.3-0.1-0.5
		c0-0.2,0.1-0.4,0.2-0.5s0.3-0.3,0.5-0.4c-0.3-0.1-0.5-0.3-0.7-0.6s-0.3-0.6-0.3-0.9c0-0.6,0.2-1,0.5-1.4s0.8-0.5,1.5-0.5
		c0.3,0,0.5,0,0.8,0.1H477.4z M473.1,55c0,0.3,0.1,0.5,0.4,0.7s0.6,0.2,1,0.2c0.7,0,1.2-0.1,1.5-0.3s0.5-0.5,0.5-0.8
		c0-0.3-0.1-0.5-0.3-0.6s-0.5-0.2-1-0.2h-1c-0.4,0-0.7,0.1-0.9,0.3S473.1,54.7,473.1,55z M473.5,50.5c0,0.4,0.1,0.7,0.3,0.8
		s0.5,0.3,0.9,0.3c0.8,0,1.2-0.4,1.2-1.2c0-0.8-0.4-1.2-1.2-1.2c-0.4,0-0.7,0.1-0.9,0.3S473.5,50.1,473.5,50.5z M478.8,54.1H478
		v-7.6h0.8V54.1z M485.6,51.4c0,0.9-0.2,1.6-0.7,2s-1,0.7-1.8,0.7c-0.5,0-0.9-0.1-1.3-0.3s-0.7-0.5-0.9-1s-0.3-0.9-0.3-1.5
		c0-0.9,0.2-1.6,0.7-2s1-0.7,1.8-0.7c0.7,0,1.3,0.2,1.8,0.7S485.6,50.6,485.6,51.4z M481.5,51.4c0,0.7,0.1,1.2,0.4,1.6
		s0.7,0.5,1.2,0.5s0.9-0.2,1.2-0.5s0.4-0.9,0.4-1.6c0-0.7-0.1-1.2-0.4-1.6s-0.7-0.5-1.2-0.5c-0.5,0-0.9,0.2-1.2,0.5
		S481.5,50.7,481.5,51.4z M491.4,48.7v0.5l-1,0.1c0.1,0.1,0.2,0.3,0.2,0.4s0.1,0.4,0.1,0.6c0,0.5-0.2,0.9-0.5,1.3s-0.8,0.5-1.5,0.5
		c-0.2,0-0.3,0-0.4,0c-0.3,0.2-0.5,0.4-0.5,0.7c0,0.1,0.1,0.3,0.2,0.3s0.3,0.1,0.6,0.1h0.9c0.6,0,1,0.1,1.3,0.4s0.5,0.6,0.5,1.1
		c0,0.6-0.2,1-0.7,1.4s-1.2,0.5-2.1,0.5c-0.7,0-1.2-0.1-1.6-0.4s-0.6-0.6-0.6-1.1c0-0.3,0.1-0.6,0.3-0.8s0.5-0.4,0.9-0.5
		c-0.1-0.1-0.3-0.2-0.3-0.3s-0.1-0.3-0.1-0.5c0-0.2,0.1-0.4,0.2-0.5s0.3-0.3,0.5-0.4c-0.3-0.1-0.5-0.3-0.7-0.6s-0.3-0.6-0.3-0.9
		c0-0.6,0.2-1,0.5-1.4s0.8-0.5,1.5-0.5c0.3,0,0.5,0,0.8,0.1H491.4z M487.1,55c0,0.3,0.1,0.5,0.4,0.7s0.6,0.2,1,0.2
		c0.7,0,1.2-0.1,1.5-0.3s0.5-0.5,0.5-0.8c0-0.3-0.1-0.5-0.3-0.6s-0.5-0.2-1-0.2h-1c-0.4,0-0.7,0.1-0.9,0.3S487.1,54.7,487.1,55z
		 M487.5,50.5c0,0.4,0.1,0.7,0.3,0.8s0.5,0.3,0.9,0.3c0.8,0,1.2-0.4,1.2-1.2c0-0.8-0.4-1.2-1.2-1.2c-0.4,0-0.7,0.1-0.9,0.3
		S487.5,50.1,487.5,50.5z"/>
</g>
<g>
	<defs>
		<rect id="SVGID_85_" x="524" y="37" width="72" height="29"/>
	</defs>
	<clipPath id="SVGID_86_">
		<use xlink:href="#SVGID_85_"  style="overflow:visible;"/>
	</clipPath>
	<path class="st42" d="M527,63h65H527z"/>
</g>
<g>
	<defs>
		<rect id="SVGID_87_" x="536" y="42" width="48" height="19"/>
	</defs>
	<clipPath id="SVGID_88_">
		<use xlink:href="#SVGID_87_"  style="overflow:visible;"/>
	</clipPath>
	<path class="st43" d="M544.2,55.1h-4v-7.1h4v0.7h-3.1V51h3v0.7h-3v2.6h3.1V55.1z M550.2,55.1h-4v-7.1h4v0.7h-3.1V51h3v0.7h-3v2.6
		h3.1V55.1z M558.5,55.1h-0.8l-1.4-4.8c-0.1-0.2-0.1-0.5-0.2-0.8s-0.1-0.5-0.1-0.6c-0.1,0.4-0.2,0.9-0.3,1.4l-1.4,4.8h-0.8l-1.9-7.1
		h0.9l1.1,4.4c0.2,0.6,0.3,1.2,0.3,1.7c0.1-0.6,0.2-1.2,0.4-1.7l1.3-4.3h0.9l1.3,4.4c0.2,0.5,0.3,1.1,0.4,1.7c0.1-0.5,0.2-1,0.4-1.7
		l1.1-4.4h0.9L558.5,55.1z M566.9,51.4c0,1.2-0.3,2.1-1,2.7s-1.6,0.9-2.8,0.9h-2v-7.1h2.2c1.1,0,2,0.3,2.6,0.9
		S566.9,50.3,566.9,51.4z M566.1,51.5c0-0.9-0.2-1.6-0.7-2.1s-1.2-0.7-2.1-0.7h-1.2v5.7h1c1,0,1.7-0.2,2.2-0.7
		S566.1,52.4,566.1,51.5z M572.3,55.1l-2-5.4h0.9l1.2,3.2c0.3,0.7,0.4,1.2,0.5,1.4h0c0-0.2,0.1-0.5,0.3-1.1s0.6-1.7,1.3-3.5h0.9
		l-2,5.4H572.3z M578.8,55.1H578V50c0-0.4,0-0.8,0-1.2c-0.1,0.1-0.1,0.1-0.2,0.2s-0.5,0.4-1.2,1l-0.4-0.6l1.9-1.5h0.7V55.1z"/>
</g>
<g>
	<defs>
		<path id="SVGID_89_" d="M204,103h293v47H204V103z M210,110c-2.8,0-5,2.2-5,5v26c0,2.8,2.2,5,5,5h83c2.8,0,5-2.2,5-5v-26
			c0-2.8-2.2-5-5-5H210z"/>
	</defs>
	<clipPath id="SVGID_90_">
		<use xlink:href="#SVGID_89_"  style="overflow:visible;"/>
	</clipPath>
	<path class="st44" d="M311,128L311,128h10"/>
</g>
<g>
	<defs>
		<rect id="SVGID_91_" x="203" y="102" width="295" height="49"/>
	</defs>
	<clipPath id="SVGID_92_">
		<use xlink:href="#SVGID_91_"  style="overflow:visible;"/>
	</clipPath>
	<path class="st45" d="M298,128h13"/>
</g>
<g>
	<defs>
		<rect id="SVGID_93_" x="203" y="108" width="98" height="41"/>
	</defs>
	<clipPath id="SVGID_94_">
		<use xlink:href="#SVGID_93_"  style="overflow:visible;"/>
	</clipPath>
	<path class="st46" d="M210,110c-2.8,0-5,2.2-5,5v26c0,2.8,2.2,5,5,5h83c2.8,0,5-2.2,5-5v-26c0-2.8-2.2-5-5-5H210z"/>
</g>
<g>
	<defs>
		<rect id="SVGID_95_" x="203" y="108" width="98" height="41"/>
	</defs>
	<clipPath id="SVGID_96_">
		<use xlink:href="#SVGID_95_"  style="overflow:visible;"/>
	</clipPath>
	<path class="st47" d="M210,110c-2.8,0-5,2.2-5,5v26c0,2.8,2.2,5,5,5h83c2.8,0,5-2.2,5-5v-26c0-2.8-2.2-5-5-5H210z"/>
</g>
<g>
	<defs>
		<rect id="SVGID_97_" x="217" y="117" width="70" height="23"/>
	</defs>
	<clipPath id="SVGID_98_">
		<use xlink:href="#SVGID_97_"  style="overflow:visible;"/>
	</clipPath>
	<path class="st48" d="M224.9,130c0,0.6-0.2,1.1-0.7,1.5s-1.2,0.5-2,0.5c-0.9,0-1.6-0.1-2.2-0.4v-1c0.3,0.2,0.7,0.3,1.1,0.4
		s0.8,0.1,1.1,0.1c0.6,0,1-0.1,1.3-0.3s0.4-0.4,0.4-0.8c0-0.3-0.1-0.5-0.4-0.7s-0.7-0.4-1.4-0.7c-0.6-0.2-1.1-0.5-1.4-0.6
		s-0.5-0.4-0.6-0.6s-0.2-0.5-0.2-0.8c0-0.6,0.2-1,0.7-1.3s1.1-0.5,1.9-0.5c0.7,0,1.5,0.2,2.2,0.5l-0.4,0.9c-0.7-0.3-1.3-0.4-1.9-0.4
		c-0.5,0-0.9,0.1-1.1,0.2s-0.4,0.4-0.4,0.6c0,0.2,0,0.3,0.1,0.5s0.2,0.3,0.5,0.4s0.6,0.3,1.2,0.5c0.8,0.3,1.4,0.6,1.7,0.9
		S224.9,129.5,224.9,130z M229.2,132c-1,0-1.8-0.3-2.3-0.9s-0.8-1.5-0.8-2.6c0-1.2,0.3-2.1,0.8-2.7s1.4-1,2.4-1c0.3,0,0.7,0,1,0.1
		s0.6,0.2,0.8,0.3l-0.3,0.9c-0.2-0.1-0.5-0.2-0.8-0.2s-0.5-0.1-0.7-0.1c-1.4,0-2.1,0.9-2.1,2.7c0,0.9,0.2,1.5,0.5,2s0.9,0.7,1.5,0.7
		c0.6,0,1.2-0.1,1.8-0.4v0.9C230.5,131.9,229.9,132,229.2,132z M236.7,131.9l-0.2-1h-0.1c-0.3,0.4-0.7,0.7-1,0.9s-0.8,0.2-1.3,0.2
		c-0.7,0-1.2-0.2-1.6-0.5s-0.6-0.9-0.6-1.5c0-1.4,1.1-2.1,3.4-2.2l1.2,0v-0.4c0-0.5-0.1-0.9-0.4-1.2s-0.6-0.4-1.1-0.4
		c-0.6,0-1.2,0.2-2,0.5l-0.3-0.8c0.3-0.2,0.7-0.3,1.1-0.4s0.8-0.2,1.2-0.2c0.8,0,1.4,0.2,1.8,0.6s0.6,1,0.6,1.8v4.7H236.7z
		 M234.3,131.1c0.7,0,1.2-0.2,1.5-0.5s0.6-0.9,0.6-1.5v-0.6l-1.1,0c-0.8,0-1.4,0.2-1.8,0.4s-0.6,0.6-0.6,1.1c0,0.4,0.1,0.7,0.3,0.9
		S233.9,131.1,234.3,131.1z M240.4,124.9v4.5c0,0.6,0.1,1,0.4,1.3s0.7,0.4,1.2,0.4c0.7,0,1.3-0.2,1.6-0.6s0.5-1,0.5-1.9v-3.7h1.1v7
		h-0.9l-0.2-0.9h-0.1c-0.2,0.3-0.5,0.6-0.9,0.8s-0.8,0.3-1.3,0.3c-0.8,0-1.5-0.2-1.9-0.6s-0.6-1-0.6-1.9v-4.6H240.4z M249.7,131.1
		c0.2,0,0.4,0,0.5,0s0.3-0.1,0.4-0.1v0.8c-0.1,0.1-0.3,0.1-0.5,0.1s-0.4,0.1-0.6,0.1c-1.3,0-2-0.7-2-2.1v-4.1h-1v-0.5l1-0.4l0.4-1.5
		h0.6v1.6h2v0.8h-2v4.1c0,0.4,0.1,0.7,0.3,1S249.3,131.1,249.7,131.1z M258.4,128.4c0,1.1-0.3,2-0.9,2.7s-1.4,1-2.4,1
		c-0.6,0-1.2-0.1-1.7-0.4s-0.9-0.7-1.1-1.3s-0.4-1.2-0.4-1.9c0-1.1,0.3-2,0.9-2.7s1.4-0.9,2.4-0.9c1,0,1.7,0.3,2.3,1
		S258.4,127.3,258.4,128.4z M253.1,128.4c0,0.9,0.2,1.6,0.5,2s0.9,0.7,1.6,0.7s1.2-0.2,1.6-0.7s0.5-1.1,0.5-2c0-0.9-0.2-1.6-0.5-2
		s-0.9-0.7-1.6-0.7c-0.7,0-1.2,0.2-1.6,0.7S253.1,127.5,253.1,128.4z M263.7,132c-0.5,0-0.9-0.1-1.2-0.3s-0.7-0.4-0.9-0.8h-0.1
		c0.1,0.4,0.1,0.8,0.1,1.2v2.9h-1.1v-10.1h0.9l0.1,1h0.1c0.3-0.4,0.6-0.7,0.9-0.8s0.8-0.3,1.2-0.3c0.9,0,1.6,0.3,2.1,0.9
		s0.8,1.5,0.8,2.7c0,1.1-0.3,2-0.8,2.7S264.6,132,263.7,132z M263.5,125.7c-0.7,0-1.2,0.2-1.5,0.6s-0.5,1-0.5,1.9v0.2
		c0,1,0.2,1.7,0.5,2.1s0.8,0.6,1.6,0.6c0.6,0,1.1-0.2,1.4-0.7s0.5-1.2,0.5-2c0-0.9-0.2-1.5-0.5-2S264.1,125.7,263.5,125.7z
		 M269.5,131.9h-1.1v-7h1.1V131.9z M268.3,123c0-0.2,0.1-0.4,0.2-0.5s0.3-0.2,0.4-0.2c0.2,0,0.3,0.1,0.4,0.2s0.2,0.3,0.2,0.5
		s-0.1,0.4-0.2,0.5s-0.3,0.2-0.4,0.2c-0.2,0-0.3-0.1-0.4-0.2S268.3,123.3,268.3,123z M274.2,132c-1,0-1.8-0.3-2.3-0.9
		s-0.8-1.5-0.8-2.6c0-1.2,0.3-2.1,0.8-2.7s1.4-1,2.4-1c0.3,0,0.7,0,1,0.1s0.6,0.2,0.8,0.3l-0.3,0.9c-0.2-0.1-0.5-0.2-0.8-0.2
		s-0.5-0.1-0.7-0.1c-1.4,0-2.1,0.9-2.1,2.7c0,0.9,0.2,1.5,0.5,2s0.9,0.7,1.5,0.7c0.6,0,1.2-0.1,1.8-0.4v0.9
		C275.5,131.9,274.9,132,274.2,132z M278.5,128.3c0.2-0.3,0.5-0.6,0.8-1l2.2-2.4h1.3l-2.8,3l3,4h-1.3l-2.5-3.3l-0.8,0.7v2.6h-1V122
		h1v5.2C278.5,127.5,278.5,127.8,278.5,128.3L278.5,128.3z"/>
</g>
<g>
	<defs>
		<rect id="SVGID_99_" x="411" y="102" width="87" height="49"/>
	</defs>
	<clipPath id="SVGID_100_">
		<use xlink:href="#SVGID_99_"  style="overflow:visible;"/>
	</clipPath>
	<path class="st49" d="M422,105c-4.4,0-8,3.6-8,8v26c0,4.4,3.6,8,8,8h64c4.4,0,8-3.6,8-8v-26c0-4.4-3.6-8-8-8H422z"/>
</g>
<g>
	<defs>
		<rect id="SVGID_101_" x="411" y="102" width="87" height="49"/>
	</defs>
	<clipPath id="SVGID_102_">
		<use xlink:href="#SVGID_101_"  style="overflow:visible;"/>
	</clipPath>
	<path class="st50" d="M422,105c-4.4,0-8,3.6-8,8v26c0,4.4,3.6,8,8,8h64c4.4,0,8-3.6,8-8v-26c0-4.4-3.6-8-8-8H422z"/>
</g>
<g>
	<defs>
		<path id="SVGID_103_" d="M319,103h178v47H319V103z M321,105v22h69v-22H321z"/>
	</defs>
	<clipPath id="SVGID_104_">
		<use xlink:href="#SVGID_103_"  style="overflow:visible;"/>
	</clipPath>
	<path class="st51" d="M403,128c4.7,6.7,11.7,10,21,10"/>
</g>
<g>
	<defs>
		<rect id="SVGID_105_" x="318" y="102" width="180" height="49"/>
	</defs>
	<clipPath id="SVGID_106_">
		<use xlink:href="#SVGID_105_"  style="overflow:visible;"/>
	</clipPath>
	<path class="st52" d="M390,128h13"/>
</g>
<g>
	<defs>
		<rect id="SVGID_107_" x="318" y="102" width="76" height="29"/>
	</defs>
	<clipPath id="SVGID_108_">
		<use xlink:href="#SVGID_107_"  style="overflow:visible;"/>
	</clipPath>
	<path class="st53" d="M321,128h69H321z"/>
</g>
<g>
	<defs>
		<rect id="SVGID_109_" x="330" y="107" width="52" height="19"/>
	</defs>
	<clipPath id="SVGID_110_">
		<use xlink:href="#SVGID_109_"  style="overflow:visible;"/>
	</clipPath>
	<path class="st54" d="M336.8,118.8c0,0.5-0.2,0.9-0.6,1.2s-0.9,0.4-1.6,0.4c-0.7,0-1.3-0.1-1.7-0.3v-0.8c0.3,0.1,0.5,0.2,0.8,0.3
		s0.6,0.1,0.9,0.1c0.4,0,0.7-0.1,1-0.2s0.3-0.3,0.3-0.6c0-0.2-0.1-0.4-0.3-0.5s-0.5-0.3-1.1-0.5c-0.5-0.2-0.9-0.3-1.1-0.5
		s-0.4-0.3-0.5-0.5s-0.2-0.4-0.2-0.6c0-0.4,0.2-0.8,0.5-1s0.8-0.4,1.5-0.4c0.6,0,1.1,0.1,1.7,0.4l-0.3,0.7c-0.5-0.2-1-0.3-1.5-0.3
		c-0.4,0-0.7,0.1-0.9,0.2s-0.3,0.3-0.3,0.5c0,0.1,0,0.3,0.1,0.4s0.2,0.2,0.4,0.3s0.5,0.2,0.9,0.4c0.6,0.2,1.1,0.5,1.3,0.7
		S336.8,118.4,336.8,118.8z M340.5,120.3c-0.8,0-1.4-0.2-1.8-0.7s-0.6-1.2-0.6-2c0-0.9,0.2-1.6,0.6-2.1s1-0.7,1.8-0.7
		c0.3,0,0.5,0,0.8,0.1s0.5,0.1,0.6,0.2l-0.2,0.7c-0.2-0.1-0.4-0.1-0.6-0.2s-0.4-0.1-0.6-0.1c-1.1,0-1.6,0.7-1.6,2.1
		c0,0.7,0.1,1.2,0.4,1.5s0.7,0.5,1.2,0.5c0.4,0,0.9-0.1,1.4-0.3v0.7C341.5,120.3,341.1,120.3,340.5,120.3z M346.7,120.2l-0.2-0.8h0
		c-0.3,0.3-0.5,0.6-0.8,0.7s-0.6,0.2-1,0.2c-0.5,0-0.9-0.1-1.2-0.4s-0.5-0.7-0.5-1.2c0-1.1,0.9-1.6,2.6-1.7l0.9,0v-0.3
		c0-0.4-0.1-0.7-0.3-0.9s-0.5-0.3-0.9-0.3c-0.4,0-1,0.1-1.5,0.4l-0.2-0.6c0.3-0.1,0.6-0.3,0.9-0.3s0.6-0.1,0.9-0.1
		c0.6,0,1.1,0.1,1.4,0.4s0.5,0.7,0.5,1.4v3.7H346.7z M344.8,119.7c0.5,0,0.9-0.1,1.2-0.4s0.4-0.7,0.4-1.2v-0.5l-0.8,0
		c-0.6,0-1.1,0.1-1.4,0.3s-0.4,0.5-0.4,0.8c0,0.3,0.1,0.5,0.3,0.7S344.5,119.7,344.8,119.7z M350.1,114.9v3.5c0,0.4,0.1,0.8,0.3,1
		s0.5,0.3,0.9,0.3c0.6,0,1-0.2,1.2-0.5s0.4-0.8,0.4-1.5v-2.8h0.8v5.4h-0.7l-0.1-0.7h0c-0.2,0.3-0.4,0.5-0.7,0.6s-0.6,0.2-1,0.2
		c-0.7,0-1.1-0.2-1.5-0.5c-0.3-0.3-0.5-0.8-0.5-1.5v-3.5H350.1z M357.1,119.7c0.1,0,0.3,0,0.4,0s0.2,0,0.3-0.1v0.6
		c-0.1,0-0.2,0.1-0.4,0.1s-0.3,0-0.5,0c-1,0-1.6-0.5-1.6-1.6v-3.2h-0.8v-0.4l0.8-0.3l0.3-1.1h0.5v1.2h1.6v0.6h-1.6v3.1
		c0,0.3,0.1,0.6,0.2,0.7S356.8,119.7,357.1,119.7z M364,117.6c0,0.9-0.2,1.6-0.7,2s-1,0.7-1.8,0.7c-0.5,0-0.9-0.1-1.3-0.3
		s-0.7-0.5-0.9-1s-0.3-0.9-0.3-1.5c0-0.9,0.2-1.6,0.7-2s1-0.7,1.8-0.7c0.7,0,1.3,0.2,1.8,0.7S364,116.7,364,117.6z M359.9,117.6
		c0,0.7,0.1,1.2,0.4,1.6s0.7,0.5,1.2,0.5s0.9-0.2,1.2-0.5s0.4-0.9,0.4-1.6c0-0.7-0.1-1.2-0.4-1.6s-0.7-0.5-1.2-0.5
		c-0.5,0-0.9,0.2-1.2,0.5S359.9,116.9,359.9,117.6z M366.2,120.2h-0.8v-7.6h0.8V120.2z M373,117.6c0,0.9-0.2,1.6-0.7,2
		s-1,0.7-1.8,0.7c-0.5,0-0.9-0.1-1.3-0.3s-0.7-0.5-0.9-1s-0.3-0.9-0.3-1.5c0-0.9,0.2-1.6,0.7-2s1-0.7,1.8-0.7c0.7,0,1.3,0.2,1.8,0.7
		S373,116.7,373,117.6z M368.9,117.6c0,0.7,0.1,1.2,0.4,1.6s0.7,0.5,1.2,0.5s0.9-0.2,1.2-0.5s0.4-0.9,0.4-1.6c0-0.7-0.1-1.2-0.4-1.6
		s-0.7-0.5-1.2-0.5c-0.5,0-0.9,0.2-1.2,0.5S368.9,116.9,368.9,117.6z M376.5,120.3c-0.8,0-1.4-0.2-1.8-0.7s-0.6-1.2-0.6-2
		c0-0.9,0.2-1.6,0.6-2.1s1-0.7,1.8-0.7c0.3,0,0.5,0,0.8,0.1s0.5,0.1,0.6,0.2l-0.2,0.7c-0.2-0.1-0.4-0.1-0.6-0.2s-0.4-0.1-0.6-0.1
		c-1.1,0-1.6,0.7-1.6,2.1c0,0.7,0.1,1.2,0.4,1.5s0.7,0.5,1.2,0.5c0.4,0,0.9-0.1,1.4-0.3v0.7C377.5,120.3,377.1,120.3,376.5,120.3z"
		/>
</g>
<g>
	<defs>
		<rect id="SVGID_111_" x="421" y="112" width="67" height="29"/>
	</defs>
	<clipPath id="SVGID_112_">
		<use xlink:href="#SVGID_111_"  style="overflow:visible;"/>
	</clipPath>
	<path class="st55" d="M424,138h60H424z"/>
</g>
<g>
	<defs>
		<rect id="SVGID_113_" x="433" y="117" width="43" height="19"/>
	</defs>
	<clipPath id="SVGID_114_">
		<use xlink:href="#SVGID_113_"  style="overflow:visible;"/>
	</clipPath>
	<path class="st56" d="M439.9,128.3c0,0.5-0.2,0.9-0.6,1.2s-0.9,0.4-1.6,0.4c-0.7,0-1.3-0.1-1.7-0.3v-0.8c0.3,0.1,0.5,0.2,0.8,0.3
		s0.6,0.1,0.9,0.1c0.4,0,0.7-0.1,1-0.2s0.3-0.3,0.3-0.6c0-0.2-0.1-0.4-0.3-0.5s-0.5-0.3-1.1-0.5c-0.5-0.2-0.9-0.3-1.1-0.5
		s-0.4-0.3-0.5-0.5s-0.2-0.4-0.2-0.6c0-0.4,0.2-0.8,0.5-1s0.8-0.4,1.5-0.4c0.6,0,1.1,0.1,1.7,0.4l-0.3,0.7c-0.5-0.2-1-0.3-1.5-0.3
		c-0.4,0-0.7,0.1-0.9,0.2s-0.3,0.3-0.3,0.5c0,0.1,0,0.3,0.1,0.4s0.2,0.2,0.4,0.3s0.5,0.2,0.9,0.4c0.6,0.2,1.1,0.5,1.3,0.7
		S439.9,127.9,439.9,128.3z M443.6,129.8c-0.8,0-1.4-0.2-1.8-0.7s-0.6-1.2-0.6-2c0-0.9,0.2-1.6,0.6-2.1s1-0.7,1.8-0.7
		c0.3,0,0.5,0,0.8,0.1s0.5,0.1,0.6,0.2l-0.2,0.7c-0.2-0.1-0.4-0.1-0.6-0.2s-0.4-0.1-0.6-0.1c-1.1,0-1.6,0.7-1.6,2.1
		c0,0.7,0.1,1.2,0.4,1.5s0.7,0.5,1.2,0.5c0.4,0,0.9-0.1,1.4-0.3v0.7C444.6,129.8,444.1,129.8,443.6,129.8z M448.7,129.8
		c-0.8,0-1.4-0.2-1.9-0.7s-0.7-1.2-0.7-2c0-0.9,0.2-1.5,0.6-2.1s1-0.8,1.7-0.8c0.7,0,1.2,0.2,1.6,0.7s0.6,1,0.6,1.7v0.5H447
		c0,0.6,0.2,1.1,0.5,1.4s0.7,0.5,1.3,0.5c0.6,0,1.1-0.1,1.7-0.4v0.7c-0.3,0.1-0.6,0.2-0.8,0.3S449.1,129.8,448.7,129.8z M448.5,125
		c-0.4,0-0.8,0.1-1,0.4s-0.4,0.7-0.5,1.2h2.8c0-0.5-0.1-0.9-0.3-1.2S448.9,125,448.5,125z M453.6,129.7l-2-5.4h0.9l1.2,3.2
		c0.3,0.7,0.4,1.2,0.5,1.4h0c0-0.2,0.1-0.5,0.3-1.1s0.6-1.7,1.3-3.5h0.9l-2,5.4H453.6z M459.7,129.8c-0.8,0-1.4-0.2-1.9-0.7
		s-0.7-1.2-0.7-2c0-0.9,0.2-1.5,0.6-2.1s1-0.8,1.7-0.8c0.7,0,1.2,0.2,1.6,0.7s0.6,1,0.6,1.7v0.5H458c0,0.6,0.2,1.1,0.5,1.4
		s0.7,0.5,1.3,0.5c0.6,0,1.1-0.1,1.7-0.4v0.7c-0.3,0.1-0.6,0.2-0.8,0.3S460.1,129.8,459.7,129.8z M459.5,125c-0.4,0-0.8,0.1-1,0.4
		s-0.4,0.7-0.5,1.2h2.8c0-0.5-0.1-0.9-0.3-1.2S459.9,125,459.5,125z M467.1,129.7v-3.5c0-0.4-0.1-0.8-0.3-1s-0.5-0.3-0.9-0.3
		c-0.6,0-1,0.2-1.2,0.5s-0.4,0.8-0.4,1.5v2.8h-0.8v-5.4h0.7l0.1,0.7h0c0.2-0.3,0.4-0.5,0.7-0.6s0.6-0.2,1-0.2c0.6,0,1.1,0.2,1.5,0.5
		s0.5,0.8,0.5,1.5v3.5H467.1z M471.2,129.2c0.1,0,0.3,0,0.4,0s0.2,0,0.3-0.1v0.6c-0.1,0-0.2,0.1-0.4,0.1s-0.3,0-0.5,0
		c-1,0-1.6-0.5-1.6-1.6V125h-0.8v-0.4l0.8-0.3l0.3-1.1h0.5v1.2h1.6v0.6h-1.6v3.1c0,0.3,0.1,0.6,0.2,0.7S470.9,129.2,471.2,129.2z"/>
</g>
<g>
	<defs>
		<rect id="SVGID_115_" x="218" y="182" width="100" height="41"/>
	</defs>
	<clipPath id="SVGID_116_">
		<use xlink:href="#SVGID_115_"  style="overflow:visible;"/>
	</clipPath>
	<path class="st57" d="M225,184c-2.8,0-5,2.2-5,5v26c0,2.8,2.2,5,5,5h85c2.8,0,5-2.2,5-5v-26c0-2.8-2.2-5-5-5H225z"/>
</g>
<g>
	<defs>
		<rect id="SVGID_117_" x="218" y="182" width="100" height="41"/>
	</defs>
	<clipPath id="SVGID_118_">
		<use xlink:href="#SVGID_117_"  style="overflow:visible;"/>
	</clipPath>
	<path class="st58" d="M225,184c-2.8,0-5,2.2-5,5v26c0,2.8,2.2,5,5,5h85c2.8,0,5-2.2,5-5v-26c0-2.8-2.2-5-5-5H225z"/>
</g>
<g>
	<defs>
		<rect id="SVGID_119_" x="247" y="191" width="57" height="23"/>
	</defs>
	<clipPath id="SVGID_120_">
		<use xlink:href="#SVGID_119_"  style="overflow:visible;"/>
	</clipPath>
	<path class="st59" d="M254.9,202.6c0,0.6-0.2,1.1-0.7,1.5s-1.2,0.5-2,0.5c-0.9,0-1.6-0.1-2.2-0.4v-1c0.3,0.2,0.7,0.3,1.1,0.4
		s0.8,0.1,1.1,0.1c0.6,0,1-0.1,1.3-0.3s0.4-0.4,0.4-0.8c0-0.3-0.1-0.5-0.4-0.7s-0.7-0.4-1.4-0.7c-0.6-0.2-1.1-0.5-1.4-0.6
		s-0.5-0.4-0.6-0.6s-0.2-0.5-0.2-0.8c0-0.6,0.2-1,0.7-1.3s1.1-0.5,1.9-0.5c0.7,0,1.5,0.2,2.2,0.5l-0.4,0.9c-0.7-0.3-1.3-0.4-1.9-0.4
		c-0.5,0-0.9,0.1-1.1,0.2s-0.4,0.4-0.4,0.6c0,0.2,0,0.3,0.1,0.5s0.2,0.3,0.5,0.4s0.6,0.3,1.2,0.5c0.8,0.3,1.4,0.6,1.7,0.9
		S254.9,202.1,254.9,202.6z M259.2,204.6c-1,0-1.8-0.3-2.3-0.9s-0.8-1.5-0.8-2.6c0-1.2,0.3-2.1,0.8-2.7s1.4-1,2.4-1
		c0.3,0,0.7,0,1,0.1s0.6,0.2,0.8,0.3l-0.3,0.9c-0.2-0.1-0.5-0.2-0.8-0.2s-0.5-0.1-0.7-0.1c-1.4,0-2.1,0.9-2.1,2.7
		c0,0.9,0.2,1.5,0.5,2s0.9,0.7,1.5,0.7c0.6,0,1.2-0.1,1.8-0.4v0.9C260.4,204.5,259.9,204.6,259.2,204.6z M263.9,204.5l-2.6-7h1.1
		l1.5,4.1c0.3,1,0.5,1.6,0.6,1.9h0.1c0-0.2,0.2-0.7,0.4-1.4s0.8-2.2,1.7-4.6h1.1l-2.6,7H263.9z M273.9,202.6c0,0.6-0.2,1.1-0.7,1.5
		s-1.2,0.5-2,0.5c-0.9,0-1.6-0.1-2.2-0.4v-1c0.3,0.2,0.7,0.3,1.1,0.4s0.8,0.1,1.1,0.1c0.6,0,1-0.1,1.3-0.3s0.4-0.4,0.4-0.8
		c0-0.3-0.1-0.5-0.4-0.7s-0.7-0.4-1.4-0.7c-0.6-0.2-1.1-0.5-1.4-0.6s-0.5-0.4-0.6-0.6s-0.2-0.5-0.2-0.8c0-0.6,0.2-1,0.7-1.3
		s1.1-0.5,1.9-0.5c0.7,0,1.5,0.2,2.2,0.5l-0.4,0.9c-0.7-0.3-1.3-0.4-1.9-0.4c-0.5,0-0.9,0.1-1.1,0.2s-0.4,0.4-0.4,0.6
		c0,0.2,0,0.3,0.1,0.5s0.2,0.3,0.5,0.4s0.6,0.3,1.2,0.5c0.8,0.3,1.4,0.6,1.7,0.9S273.9,202.1,273.9,202.6z M284.2,204.5V200
		c0-0.6-0.1-1-0.4-1.2s-0.6-0.4-1.1-0.4c-0.7,0-1.1,0.2-1.5,0.6s-0.5,1-0.5,1.7v3.9h-1.1V200c0-0.6-0.1-1-0.4-1.2s-0.6-0.4-1.1-0.4
		c-0.7,0-1.1,0.2-1.5,0.6s-0.5,1-0.5,1.9v3.6h-1.1v-7h0.9l0.2,1h0.1c0.2-0.3,0.5-0.6,0.8-0.8s0.8-0.3,1.2-0.3c1.1,0,1.8,0.4,2.1,1.2
		h0.1c0.2-0.4,0.5-0.7,0.9-0.9s0.8-0.3,1.3-0.3c0.8,0,1.4,0.2,1.8,0.6s0.6,1.1,0.6,1.9v4.5H284.2z M291.7,204.5l-0.2-1h-0.1
		c-0.3,0.4-0.7,0.7-1,0.9s-0.8,0.2-1.3,0.2c-0.7,0-1.2-0.2-1.6-0.5s-0.6-0.9-0.6-1.5c0-1.4,1.1-2.1,3.4-2.2l1.2,0v-0.4
		c0-0.5-0.1-0.9-0.4-1.2s-0.6-0.4-1.1-0.4c-0.6,0-1.2,0.2-2,0.5l-0.3-0.8c0.3-0.2,0.7-0.3,1.1-0.4s0.8-0.2,1.2-0.2
		c0.8,0,1.4,0.2,1.8,0.6s0.6,1,0.6,1.8v4.7H291.7z M289.3,203.7c0.7,0,1.2-0.2,1.5-0.5s0.6-0.9,0.6-1.5v-0.6l-1.1,0
		c-0.8,0-1.4,0.2-1.8,0.4s-0.6,0.6-0.6,1.1c0,0.4,0.1,0.7,0.3,0.9S288.9,203.7,289.3,203.7z M300.1,197.5v0.7l-1.3,0.2
		c0.1,0.1,0.2,0.3,0.3,0.6s0.1,0.5,0.1,0.8c0,0.7-0.2,1.2-0.7,1.6s-1.1,0.6-1.9,0.6c-0.2,0-0.4,0-0.6-0.1c-0.4,0.2-0.7,0.5-0.7,0.9
		c0,0.2,0.1,0.3,0.2,0.4s0.4,0.1,0.8,0.1h1.2c0.8,0,1.3,0.2,1.7,0.5s0.6,0.8,0.6,1.4c0,0.8-0.3,1.4-0.9,1.8s-1.5,0.6-2.7,0.6
		c-0.9,0-1.6-0.2-2.1-0.5s-0.7-0.8-0.7-1.4c0-0.4,0.1-0.8,0.4-1.1s0.7-0.5,1.1-0.6c-0.2-0.1-0.3-0.2-0.4-0.4s-0.2-0.4-0.2-0.6
		c0-0.3,0.1-0.5,0.2-0.7s0.3-0.4,0.6-0.6c-0.4-0.1-0.7-0.4-0.9-0.8s-0.3-0.8-0.3-1.2c0-0.8,0.2-1.3,0.7-1.8s1.1-0.6,1.9-0.6
		c0.4,0,0.7,0,1,0.1H300.1z M294.5,205.6c0,0.4,0.2,0.7,0.5,0.9s0.8,0.3,1.4,0.3c0.9,0,1.5-0.1,2-0.4s0.6-0.6,0.6-1.1
		c0-0.4-0.1-0.6-0.3-0.8s-0.7-0.2-1.3-0.2H296c-0.5,0-0.9,0.1-1.1,0.3S294.5,205.2,294.5,205.6z M295.1,199.8c0,0.5,0.1,0.9,0.4,1.1
		s0.7,0.4,1.1,0.4c1,0,1.5-0.5,1.5-1.5c0-1-0.5-1.6-1.6-1.6c-0.5,0-0.9,0.1-1.1,0.4S295.1,199.2,295.1,199.8z"/>
</g>
<g>
	<defs>
		<rect id="SVGID_121_" x="232" y="195" width="15" height="15"/>
	</defs>
	<clipPath id="SVGID_122_">
		<use xlink:href="#SVGID_121_"  style="overflow:visible;"/>
	</clipPath>
	<path class="st60" d="M239.5,209c3.6,0,6.5-2.9,6.5-6.5s-2.9-6.5-6.5-6.5s-6.5,2.9-6.5,6.5S235.9,209,239.5,209z M239.5,208.2
		c-3.1,0-5.7-2.5-5.7-5.7s2.5-5.7,5.7-5.7s5.7,2.5,5.7,5.7S242.6,208.2,239.5,208.2z M242.4,202.5l-4.4-2.7v5.3L242.4,202.5z"/>
</g>
<g>
	<defs>
		<rect id="SVGID_123_" x="218" y="264" width="97" height="41"/>
	</defs>
	<clipPath id="SVGID_124_">
		<use xlink:href="#SVGID_123_"  style="overflow:visible;"/>
	</clipPath>
	<path class="st61" d="M225,266c-2.8,0-5,2.2-5,5v26c0,2.8,2.2,5,5,5h82c2.8,0,5-2.2,5-5v-26c0-2.8-2.2-5-5-5H225z"/>
</g>
<g>
	<defs>
		<rect id="SVGID_125_" x="218" y="264" width="97" height="41"/>
	</defs>
	<clipPath id="SVGID_126_">
		<use xlink:href="#SVGID_125_"  style="overflow:visible;"/>
	</clipPath>
	<path class="st62" d="M225,266c-2.8,0-5,2.2-5,5v26c0,2.8,2.2,5,5,5h82c2.8,0,5-2.2,5-5v-26c0-2.8-2.2-5-5-5H225z"/>
</g>
<g>
	<defs>
		<rect id="SVGID_127_" x="247" y="273" width="54" height="23"/>
	</defs>
	<clipPath id="SVGID_128_">
		<use xlink:href="#SVGID_127_"  style="overflow:visible;"/>
	</clipPath>
	<path class="st63" d="M258.2,287.5c0,0.6-0.2,1.1-0.7,1.5s-1.2,0.5-2,0.5c-0.9,0-1.6-0.1-2.2-0.4v-1c0.3,0.2,0.7,0.3,1.1,0.4
		s0.8,0.1,1.1,0.1c0.6,0,1-0.1,1.3-0.3s0.4-0.4,0.4-0.8c0-0.3-0.1-0.5-0.4-0.7s-0.7-0.4-1.4-0.7c-0.6-0.2-1.1-0.5-1.4-0.6
		s-0.5-0.4-0.6-0.6s-0.2-0.5-0.2-0.8c0-0.6,0.2-1,0.7-1.3s1.1-0.5,1.9-0.5c0.7,0,1.5,0.2,2.2,0.5l-0.4,0.9c-0.7-0.3-1.3-0.4-1.9-0.4
		c-0.5,0-0.9,0.1-1.1,0.2s-0.4,0.4-0.4,0.6c0,0.2,0,0.3,0.1,0.5s0.2,0.3,0.5,0.4s0.6,0.3,1.2,0.5c0.8,0.3,1.4,0.6,1.7,0.9
		S258.2,287.1,258.2,287.5z M262.5,289.5c-1,0-1.8-0.3-2.3-0.9s-0.8-1.5-0.8-2.6c0-1.2,0.3-2.1,0.8-2.7s1.4-1,2.4-1
		c0.3,0,0.7,0,1,0.1s0.6,0.2,0.8,0.3l-0.3,0.9c-0.2-0.1-0.5-0.2-0.8-0.2s-0.5-0.1-0.7-0.1c-1.4,0-2.1,0.9-2.1,2.7
		c0,0.9,0.2,1.5,0.5,2s0.9,0.7,1.5,0.7c0.6,0,1.2-0.1,1.8-0.4v0.9C263.8,289.4,263.2,289.5,262.5,289.5z M268.9,283.3h-1.8v6.1H266
		v-6.1h-1.2v-0.5l1.2-0.4V282c0-1.7,0.7-2.6,2.2-2.6c0.4,0,0.8,0.1,1.3,0.2l-0.3,0.8c-0.4-0.1-0.8-0.2-1-0.2c-0.4,0-0.7,0.1-0.9,0.4
		s-0.3,0.7-0.3,1.3v0.5h1.8V283.3z M271.2,289.4h-1.1v-7h1.1V289.4z M270,280.6c0-0.2,0.1-0.4,0.2-0.5s0.3-0.2,0.4-0.2
		c0.2,0,0.3,0.1,0.4,0.2s0.2,0.3,0.2,0.5s-0.1,0.4-0.2,0.5s-0.3,0.2-0.4,0.2c-0.2,0-0.3-0.1-0.4-0.2S270,280.8,270,280.6z
		 M278.5,289.4v-4.5c0-0.6-0.1-1-0.4-1.3s-0.7-0.4-1.2-0.4c-0.7,0-1.3,0.2-1.6,0.6s-0.5,1-0.5,1.9v3.6h-1.1v-7h0.9l0.2,1h0.1
		c0.2-0.3,0.5-0.6,0.9-0.8s0.8-0.3,1.3-0.3c0.8,0,1.5,0.2,1.9,0.6s0.6,1.1,0.6,1.9v4.5H278.5z M287.3,288.5L287.3,288.5
		c-0.5,0.7-1.3,1.1-2.2,1.1c-0.9,0-1.6-0.3-2.1-0.9s-0.8-1.5-0.8-2.7s0.3-2,0.8-2.7s1.2-1,2.1-1c0.9,0,1.7,0.3,2.2,1h0.1l0-0.5
		l0-0.5v-2.8h1.1v9.9h-0.9L287.3,288.5z M285.2,288.7c0.7,0,1.2-0.2,1.6-0.6s0.5-1,0.5-1.9V286c0-1-0.2-1.7-0.5-2.1
		s-0.9-0.6-1.6-0.6c-0.6,0-1.1,0.2-1.4,0.7s-0.5,1.2-0.5,2c0,0.9,0.2,1.6,0.5,2S284.5,288.7,285.2,288.7z M293.5,289.5
		c-1,0-1.8-0.3-2.4-0.9s-0.9-1.5-0.9-2.6c0-1.1,0.3-2,0.8-2.7s1.3-1,2.2-1c0.9,0,1.6,0.3,2.1,0.9s0.8,1.3,0.8,2.3v0.7h-4.8
		c0,0.8,0.2,1.4,0.6,1.9s0.9,0.6,1.7,0.6c0.7,0,1.5-0.2,2.2-0.5v0.9c-0.4,0.2-0.7,0.3-1.1,0.3S293.9,289.5,293.5,289.5z
		 M293.2,283.2c-0.6,0-1,0.2-1.3,0.5s-0.5,0.9-0.6,1.5h3.6c0-0.7-0.1-1.2-0.4-1.5S293.7,283.2,293.2,283.2z M301.7,282.3
		c0.3,0,0.6,0,0.8,0.1l-0.1,1c-0.3-0.1-0.5-0.1-0.8-0.1c-0.6,0-1,0.2-1.4,0.7s-0.6,1-0.6,1.7v3.7h-1.1v-7h0.9l0.1,1.3h0.1
		c0.3-0.5,0.6-0.8,0.9-1S301.3,282.3,301.7,282.3z"/>
</g>
<g>
	<defs>
		<rect id="SVGID_129_" x="232" y="277" width="15" height="15"/>
	</defs>
	<clipPath id="SVGID_130_">
		<use xlink:href="#SVGID_129_"  style="overflow:visible;"/>
	</clipPath>
	<path class="st64" d="M239.5,291.1c3.6,0,6.5-2.9,6.5-6.5s-2.9-6.5-6.5-6.5s-6.5,2.9-6.5,6.5S235.9,291.1,239.5,291.1z
		 M235.5,280.5c1-1,2.5-1.7,4-1.7v5.7L235.5,280.5z"/>
</g>
<g>
	<defs>
		<rect id="SVGID_131_" x="316" y="177" width="37" height="133"/>
	</defs>
	<clipPath id="SVGID_132_">
		<use xlink:href="#SVGID_131_"  style="overflow:visible;"/>
	</clipPath>
	<path class="st65" d="M322,183h12.5v121H322 M334.5,242.7H347"/>
</g>
<g>
	<defs>
		<path id="SVGID_133_" d="M352,218h176v37H352V218z M357,231c-2.8,0-5,2.2-5,5v13c0,2.8,2.2,5,5,5h64c2.8,0,5-2.2,5-5v-13
			c0-2.8-2.2-5-5-5H357z"/>
	</defs>
	<clipPath id="SVGID_134_">
		<use xlink:href="#SVGID_133_"  style="overflow:visible;"/>
	</clipPath>
	<path class="st66" d="M439,242.8c2,0.2,5,0.2,9,0.2"/>
</g>
<g>
	<defs>
		<rect id="SVGID_135_" x="351" y="217" width="178" height="39"/>
	</defs>
	<clipPath id="SVGID_136_">
		<use xlink:href="#SVGID_135_"  style="overflow:visible;"/>
	</clipPath>
	<path class="st67" d="M426,242.7l13,0.1"/>
</g>
<g>
	<defs>
		<rect id="SVGID_137_" x="351" y="230" width="77" height="26"/>
	</defs>
	<clipPath id="SVGID_138_">
		<use xlink:href="#SVGID_137_"  style="overflow:visible;"/>
	</clipPath>
	<path class="st68" d="M357,231c-2.8,0-5,2.2-5,5v13c0,2.8,2.2,5,5,5h64c2.8,0,5-2.2,5-5v-13c0-2.8-2.2-5-5-5H357z"/>
</g>
<g>
	<defs>
		<rect id="SVGID_139_" x="372" y="235" width="47" height="16"/>
	</defs>
	<clipPath id="SVGID_140_">
		<use xlink:href="#SVGID_139_"  style="overflow:visible;"/>
	</clipPath>
	<path class="st69" d="M376.6,245.8c-0.5,0-0.9-0.1-1.2-0.3s-0.5-0.4-0.5-0.7c0-0.1,0-0.3,0.1-0.4s0.2-0.2,0.3-0.2
		c0.1,0,0.2,0,0.3,0.1s0.1,0.1,0.2,0.2c0,0.1,0.1,0.2,0.1,0.3s0.1,0.2,0.1,0.3c0,0.1,0.1,0.1,0.2,0.2s0.2,0.1,0.4,0.1
		c0.4,0,0.6-0.1,0.8-0.3s0.3-0.4,0.3-0.7c0-0.2-0.1-0.4-0.3-0.5s-0.4-0.3-0.8-0.4c-0.1,0-0.3-0.1-0.4-0.2s-0.3-0.2-0.4-0.3
		c-0.1-0.1-0.2-0.2-0.3-0.4s-0.1-0.3-0.1-0.5c0-0.4,0.2-0.8,0.6-1.1s0.8-0.5,1.4-0.5c0.1,0,0.3,0,0.4,0s0.3,0,0.5,0.1
		c0.2,0.1,0.3,0.1,0.4,0.2s0.2,0.2,0.2,0.4c0,0.1,0,0.3-0.1,0.4s-0.2,0.2-0.4,0.2c-0.1,0-0.2,0-0.3-0.1s-0.1-0.1-0.2-0.2
		s-0.1-0.2-0.1-0.3s-0.1-0.2-0.1-0.3c-0.1,0-0.1,0-0.2-0.1s-0.1,0-0.2,0c-0.3,0-0.6,0.1-0.7,0.3s-0.2,0.4-0.2,0.6
		c0,0.2,0.1,0.4,0.2,0.5s0.4,0.2,0.7,0.4c0.4,0.2,0.8,0.3,1,0.5s0.3,0.5,0.3,0.8c0,0.5-0.2,0.9-0.6,1.2S377.2,245.8,376.6,245.8z
		 M381,245.8c-0.6,0-1-0.2-1.4-0.5s-0.5-0.8-0.5-1.4c0-0.4,0.1-0.8,0.2-1.2s0.3-0.7,0.5-1s0.5-0.5,0.9-0.7s0.7-0.3,1.1-0.3
		c0.5,0,0.8,0.1,1.1,0.3s0.4,0.4,0.4,0.7c0,0.2-0.1,0.4-0.2,0.6s-0.3,0.3-0.5,0.3c-0.2,0-0.3,0-0.4-0.1s-0.1-0.2-0.1-0.3
		c0-0.1,0-0.2,0.1-0.4s0.1-0.3,0.2-0.4c0-0.1-0.1-0.2-0.2-0.2s-0.3-0.1-0.4-0.1c-0.4,0-0.8,0.3-1.1,0.8s-0.5,1.1-0.5,1.9
		c0,0.5,0.1,0.8,0.3,1.1s0.5,0.4,0.8,0.4c0.3,0,0.6-0.1,0.8-0.3s0.5-0.4,0.7-0.7l0.3,0.2c-0.2,0.4-0.5,0.7-0.9,0.9
		S381.4,245.8,381,245.8z M388.3,241.8c0,0.3-0.1,0.6-0.3,0.9s-0.5,0.4-0.9,0.6c-0.3,0.1-0.6,0.2-0.9,0.3s-0.7,0.1-1,0.2
		c0,0.5,0.1,0.9,0.3,1.2s0.5,0.4,0.8,0.4c0.3,0,0.6-0.1,0.9-0.2s0.5-0.4,0.7-0.7l0.3,0.2c-0.3,0.4-0.6,0.7-1,1s-0.8,0.4-1.2,0.4
		c-0.6,0-1-0.2-1.3-0.5s-0.5-0.8-0.5-1.4c0-0.4,0.1-0.8,0.2-1.2s0.3-0.7,0.6-1c0.2-0.3,0.5-0.5,0.9-0.7s0.7-0.3,1.2-0.3
		c0.5,0,0.8,0.1,1,0.3S388.3,241.5,388.3,241.8z M387.4,241.7c0-0.1,0-0.2-0.1-0.3s-0.1-0.1-0.1-0.2c-0.1,0-0.1-0.1-0.2-0.1
		s-0.1,0-0.2,0c-0.4,0-0.8,0.2-1.1,0.6s-0.5,1-0.6,1.6c0.2,0,0.5-0.1,0.8-0.1s0.5-0.1,0.7-0.2c0.3-0.1,0.5-0.3,0.6-0.5
		S387.4,242,387.4,241.7z M393.3,241.8c0,0.3-0.1,0.6-0.3,0.9s-0.5,0.4-0.9,0.6c-0.3,0.1-0.6,0.2-0.9,0.3s-0.7,0.1-1,0.2
		c0,0.5,0.1,0.9,0.3,1.2s0.5,0.4,0.8,0.4c0.3,0,0.6-0.1,0.9-0.2s0.5-0.4,0.7-0.7l0.3,0.2c-0.3,0.4-0.6,0.7-1,1s-0.8,0.4-1.2,0.4
		c-0.6,0-1-0.2-1.3-0.5s-0.5-0.8-0.5-1.4c0-0.4,0.1-0.8,0.2-1.2s0.3-0.7,0.6-1c0.2-0.3,0.5-0.5,0.9-0.7s0.7-0.3,1.2-0.3
		c0.5,0,0.8,0.1,1,0.3S393.3,241.5,393.3,241.8z M392.4,241.7c0-0.1,0-0.2-0.1-0.3s-0.1-0.1-0.1-0.2c-0.1,0-0.1-0.1-0.2-0.1
		s-0.1,0-0.2,0c-0.4,0-0.8,0.2-1.1,0.6s-0.5,1-0.6,1.6c0.2,0,0.5-0.1,0.8-0.1s0.5-0.1,0.7-0.2c0.3-0.1,0.5-0.3,0.6-0.5
		S392.4,242,392.4,241.7z M401.7,241.7c0,0.5-0.1,1-0.2,1.5s-0.3,0.9-0.6,1.3c-0.3,0.4-0.6,0.8-1,1s-0.7,0.3-1.2,0.3
		c-0.3,0-0.6-0.1-0.8-0.3s-0.4-0.4-0.5-0.7c-0.1,0.1-0.2,0.2-0.3,0.3s-0.2,0.2-0.4,0.3s-0.3,0.2-0.4,0.2s-0.3,0.1-0.5,0.1
		c-0.2,0-0.5,0-0.6-0.1s-0.3-0.2-0.4-0.3c-0.1-0.1-0.2-0.2-0.2-0.4s-0.1-0.3-0.1-0.5c0-0.1,0-0.1,0-0.2s0-0.2,0-0.2l0.4-1.5
		c0-0.1,0.1-0.3,0.1-0.4s0-0.2,0-0.3c0-0.2,0-0.3-0.1-0.4s-0.2-0.1-0.4-0.1c-0.1,0-0.2,0-0.3,0s-0.2,0-0.3,0.1l0.1-0.3
		c0.3-0.1,0.5-0.2,0.7-0.3s0.3-0.1,0.5-0.1c0.3,0,0.5,0.1,0.6,0.2s0.2,0.3,0.2,0.5c0,0.1,0,0.1,0,0.2s0,0.2-0.1,0.3l-0.5,1.8
		c0,0.1-0.1,0.2-0.1,0.4s0,0.2,0,0.3c0,0.2,0,0.4,0.1,0.6s0.3,0.2,0.5,0.2c0.2,0,0.4-0.1,0.6-0.2s0.4-0.3,0.6-0.5l0.9-3.7l0.8-0.1
		l0.1,0.1l-0.7,3c0,0.1,0,0.2-0.1,0.4s0,0.2,0,0.3c0,0.2,0,0.3,0.1,0.4s0.1,0.2,0.2,0.2c0.1,0,0.2,0.1,0.3,0.1s0.2,0,0.3,0
		c0.2,0,0.4-0.1,0.7-0.2s0.4-0.3,0.6-0.5c0.2-0.3,0.3-0.5,0.5-0.8s0.2-0.6,0.2-1c0-0.2,0-0.3-0.1-0.5s-0.1-0.2-0.2-0.3
		c-0.1-0.1-0.1-0.2-0.2-0.3s-0.1-0.2-0.1-0.4c0-0.2,0.1-0.3,0.2-0.4s0.3-0.1,0.4-0.1c0.2,0,0.3,0.1,0.5,0.2S401.7,241.4,401.7,241.7
		z M404.8,238.2l-1.4,5.9c0,0.1-0.1,0.2-0.1,0.4s0,0.2,0,0.3c0,0.2,0,0.3,0.1,0.4s0.2,0.1,0.4,0.1c0.1,0,0.2,0,0.3,0s0.2,0,0.3-0.1
		l-0.1,0.3c-0.3,0.1-0.5,0.2-0.7,0.2s-0.3,0.1-0.5,0.1c-0.3,0-0.5-0.1-0.6-0.2s-0.2-0.3-0.2-0.5c0-0.1,0-0.2,0-0.2s0-0.2,0.1-0.3
		l1.2-5.1c0-0.1,0-0.2,0-0.2s0-0.1,0-0.1c0-0.1,0-0.2-0.1-0.3s-0.1-0.1-0.2-0.1c-0.1,0-0.2,0-0.3-0.1s-0.2,0-0.3,0l0.1-0.3
		L404.8,238.2L404.8,238.2z M409.9,242.7c0,0.4-0.1,0.8-0.2,1.2s-0.3,0.7-0.6,1c-0.3,0.3-0.6,0.5-0.9,0.7s-0.8,0.3-1.2,0.3
		c-0.5,0-1-0.2-1.3-0.5s-0.5-0.8-0.5-1.4c0-0.4,0.1-0.8,0.2-1.2s0.3-0.7,0.6-1c0.2-0.3,0.5-0.5,0.9-0.7s0.7-0.3,1.2-0.3
		c0.6,0,1,0.2,1.4,0.5S409.9,242.1,409.9,242.7z M408.9,242.5c0-0.5-0.1-0.8-0.2-1s-0.4-0.3-0.7-0.3c-0.3,0-0.5,0.1-0.8,0.2
		s-0.4,0.4-0.6,0.8c-0.1,0.3-0.2,0.6-0.3,0.9s-0.1,0.7-0.1,1c0,0.5,0.1,0.8,0.2,1.1s0.4,0.4,0.7,0.4c0.3,0,0.5-0.1,0.8-0.3
		s0.4-0.4,0.5-0.7c0.1-0.3,0.2-0.6,0.3-0.9S408.9,242.9,408.9,242.5z M413.3,245L413.3,245c-0.1,0-0.2,0.1-0.3,0.2s-0.2,0.2-0.4,0.2
		c-0.1,0.1-0.3,0.2-0.5,0.2s-0.3,0.1-0.5,0.1c-0.5,0-0.8-0.2-1.1-0.5s-0.4-0.8-0.4-1.4c0-0.4,0.1-0.8,0.2-1.2s0.4-0.7,0.6-1
		c0.2-0.3,0.5-0.5,0.9-0.7s0.7-0.3,1.1-0.3c0.2,0,0.5,0,0.7,0.1s0.4,0.1,0.5,0.2l0.9-0.2l0.1,0.1l-0.8,3.8c-0.1,0.6-0.3,1.1-0.5,1.5
		s-0.4,0.7-0.7,1c-0.3,0.2-0.5,0.4-0.9,0.5s-0.7,0.2-1.1,0.2c-0.3,0-0.5,0-0.7-0.1s-0.3-0.1-0.4-0.2s-0.2-0.1-0.2-0.2
		s-0.1-0.2-0.1-0.2c0-0.1,0-0.3,0.1-0.4s0.2-0.1,0.4-0.1c0.1,0,0.2,0,0.3,0.1s0.2,0.1,0.2,0.2c0.1,0.1,0.1,0.2,0.2,0.3
		s0.1,0.2,0.1,0.3h0.1c0.2,0,0.4,0,0.6-0.1s0.4-0.2,0.6-0.4c0.2-0.2,0.3-0.4,0.5-0.8S413.2,245.5,413.3,245z M413.9,241.9
		c0-0.1,0-0.2,0-0.3s-0.1-0.2-0.2-0.3c-0.1-0.1-0.2-0.1-0.3-0.2s-0.3-0.1-0.4-0.1c-0.3,0-0.5,0.1-0.7,0.2s-0.4,0.4-0.6,0.6
		c-0.2,0.2-0.3,0.5-0.4,0.9s-0.2,0.7-0.2,1.1c0,0.2,0,0.4,0,0.5s0.1,0.3,0.1,0.4s0.2,0.2,0.3,0.3s0.3,0.1,0.4,0.1
		c0.2,0,0.5-0.1,0.7-0.2s0.4-0.3,0.6-0.5L413.9,241.9z"/>
</g>
<g>
	<defs>
		<rect id="SVGID_141_" x="360" y="237" width="12" height="12"/>
	</defs>
	<clipPath id="SVGID_142_">
		<use xlink:href="#SVGID_141_"  style="overflow:visible;"/>
	</clipPath>
	<path class="st70" d="M366.8,248c2.8,0,5-2.2,5-5s-2.2-5-5-5s-5,2.2-5,5S364,248,366.8,248z M366.8,247.4c-2.4,0-4.4-2-4.4-4.4
		s2-4.4,4.4-4.4V247.4z"/>
</g>
<g>
	<defs>
		<rect id="SVGID_143_" x="445" y="217" width="84" height="29"/>
	</defs>
	<clipPath id="SVGID_144_">
		<use xlink:href="#SVGID_143_"  style="overflow:visible;"/>
	</clipPath>
	<path class="st71" d="M448,243h77H448z"/>
</g>
<g>
	<defs>
		<rect id="SVGID_145_" x="469" y="222" width="48" height="19"/>
	</defs>
	<clipPath id="SVGID_146_">
		<use xlink:href="#SVGID_145_"  style="overflow:visible;"/>
	</clipPath>
	<path class="st72" d="M476.4,235.1h-4V228h4v0.7h-3.1v2.3h3v0.7h-3v2.6h3.1V235.1z M482.4,235.1h-4V228h4v0.7h-3.1v2.3h3v0.7h-3
		v2.6h3.1V235.1z M490.6,235.1h-0.8l-1.4-4.8c-0.1-0.2-0.1-0.5-0.2-0.8S488,229,488,229c-0.1,0.4-0.2,0.9-0.3,1.4l-1.4,4.8h-0.8
		l-1.9-7.1h0.9l1.1,4.4c0.2,0.6,0.3,1.2,0.3,1.7c0.1-0.6,0.2-1.2,0.4-1.7l1.3-4.3h0.9l1.3,4.4c0.2,0.5,0.3,1.1,0.4,1.7
		c0.1-0.5,0.2-1,0.4-1.7l1.1-4.4h0.9L490.6,235.1z M499.1,231.5c0,1.2-0.3,2.1-1,2.7s-1.6,0.9-2.8,0.9h-2V228h2.2
		c1.1,0,2,0.3,2.6,0.9S499.1,230.4,499.1,231.5z M498.2,231.5c0-0.9-0.2-1.6-0.7-2.1s-1.2-0.7-2.1-0.7h-1.2v5.7h1
		c1,0,1.7-0.2,2.2-0.7S498.2,232.5,498.2,231.5z M504.5,235.1l-2-5.4h0.9l1.2,3.2c0.3,0.7,0.4,1.2,0.5,1.4h0c0-0.2,0.1-0.5,0.3-1.1
		s0.6-1.7,1.3-3.5h0.9l-2,5.4H504.5z M512.6,235.1h-4.7v-0.7l1.9-1.9c0.6-0.6,1-1,1.1-1.2s0.3-0.5,0.4-0.7s0.1-0.5,0.1-0.8
		c0-0.4-0.1-0.7-0.3-0.9s-0.6-0.3-1-0.3c-0.3,0-0.6,0-0.8,0.1s-0.6,0.3-0.9,0.5l-0.4-0.6c0.7-0.5,1.4-0.8,2.1-0.8
		c0.7,0,1.2,0.2,1.6,0.5s0.6,0.8,0.6,1.4c0,0.5-0.1,0.9-0.4,1.3s-0.7,1-1.4,1.7l-1.6,1.5v0h3.7V235.1z"/>
</g>
<g>
	<defs>
		<rect id="SVGID_147_" x="457" y="225" width="12" height="12"/>
	</defs>
	<clipPath id="SVGID_148_">
		<use xlink:href="#SVGID_147_"  style="overflow:visible;"/>
	</clipPath>
	<path class="st73" d="M463,236c2.8,0,5-2.2,5-5s-2.2-5-5-5s-5,2.2-5,5S460.2,236,463,236z M463,235.4c-2.4,0-4.4-2-4.4-4.4
		s2-4.4,4.4-4.4s4.4,2,4.4,4.4S465.4,235.4,463,235.4z M465.2,231l-3.4-2v4.1L465.2,231z"/>
</g>
<g>
	<defs>
		<rect id="SVGID_149_" x="320" y="143" width="138" height="38"/>
	</defs>
	<clipPath id="SVGID_150_">
		<use xlink:href="#SVGID_149_"  style="overflow:visible;"/>
	</clipPath>
	<path class="st74" d="M454,147c0,43-84,49-130,49.9"/>
</g>
<g>
	<defs>
		<rect id="SVGID_151_" x="320" y="193" width="138" height="12"/>
	</defs>
	<clipPath id="SVGID_152_">
		<use xlink:href="#SVGID_151_"  style="overflow:visible;"/>
	</clipPath>
	<path class="st75" d="M454,147c0,43-84,49-130,49.9"/>
</g>
<g>
	<defs>
		<rect id="SVGID_153_" x="320" y="179" width="47" height="16"/>
	</defs>
	<clipPath id="SVGID_154_">
		<use xlink:href="#SVGID_153_"  style="overflow:visible;"/>
	</clipPath>
	<path class="st76" d="M454,147c0,43-84,49-130,49.9"/>
</g>
<g>
	<defs>
		<rect id="SVGID_155_" x="444" y="179" width="14" height="16"/>
	</defs>
	<clipPath id="SVGID_156_">
		<use xlink:href="#SVGID_155_"  style="overflow:visible;"/>
	</clipPath>
	<path class="st77" d="M454,147c0,43-84,49-130,49.9"/>
</g>
<g>
	<defs>
		<rect id="SVGID_157_" x="365" y="179" width="81" height="16"/>
	</defs>
	<clipPath id="SVGID_158_">
		<use xlink:href="#SVGID_157_"  style="overflow:visible;"/>
	</clipPath>
	<path class="st78" d="M454,147c0,43-84,49-130,49.9"/>
</g>
<g>
	<defs>
		<rect id="SVGID_159_" x="320" y="143" width="138" height="62"/>
	</defs>
	<clipPath id="SVGID_160_">
		<use xlink:href="#SVGID_159_"  style="overflow:visible;"/>
	</clipPath>
	<path class="st79" d="M332.6,191.7l-8.6,5.2l8.8,4.8L332.6,191.7z"/>
</g>
<g>
	<defs>
		<rect id="SVGID_161_" x="320" y="143" width="138" height="62"/>
	</defs>
	<clipPath id="SVGID_162_">
		<use xlink:href="#SVGID_161_"  style="overflow:visible;"/>
	</clipPath>
	<path class="st80" d="M332.6,191.7l-8.6,5.2l8.8,4.8L332.6,191.7z"/>
</g>
<g>
	<defs>
		<rect id="SVGID_163_" x="365" y="179" width="81" height="16"/>
	</defs>
	<clipPath id="SVGID_164_">
		<use xlink:href="#SVGID_163_"  style="overflow:visible;"/>
	</clipPath>
	<path class="st81" d="M374.7,184.2c0,0.4-0.1,0.7-0.3,1.1s-0.4,0.6-0.7,0.8c-0.3,0.2-0.6,0.4-1,0.5s-0.7,0.2-1.1,0.2h-0.8l-0.5,2.1
		c0,0,0,0.1,0,0.1s0,0.1,0,0.1c0,0.1,0,0.1,0,0.2s0.1,0.1,0.2,0.1c0,0,0.1,0,0.3,0.1s0.3,0,0.4,0l-0.1,0.3h-3l0.1-0.3
		c0.1,0,0.2,0,0.3,0s0.3,0,0.3-0.1c0.1,0,0.2-0.1,0.3-0.2s0.1-0.2,0.1-0.3l1.2-5c0,0,0-0.1,0-0.1s0-0.1,0-0.1c0-0.1,0-0.1,0-0.2
		s-0.1-0.1-0.1-0.1c-0.1,0-0.2-0.1-0.3-0.1s-0.2,0-0.3,0l0.1-0.3h3.1c0.6,0,1,0.1,1.4,0.4S374.7,183.7,374.7,184.2z M373.1,185.5
		c0.1-0.2,0.2-0.4,0.3-0.6s0.1-0.4,0.1-0.6c0-0.1,0-0.3-0.1-0.4s-0.1-0.3-0.2-0.4c-0.1-0.1-0.2-0.2-0.4-0.2s-0.3-0.1-0.6-0.1h-0.6
		l-0.7,3.1h0.6c0.4,0,0.7-0.1,1-0.2S372.9,185.7,373.1,185.5z M378.9,185.6c0,0.1,0,0.2,0,0.3s-0.1,0.2-0.1,0.3
		c-0.1,0.1-0.1,0.2-0.2,0.2s-0.2,0.1-0.3,0.1c-0.2,0-0.3,0-0.4-0.1s-0.1-0.2-0.1-0.3c0-0.1,0-0.2,0.1-0.3s0.1-0.2,0.2-0.4
		c0,0-0.1,0-0.2,0s-0.2,0.1-0.3,0.1s-0.3,0.2-0.4,0.3s-0.3,0.3-0.5,0.5l-0.8,3.5h-0.9l0.7-3.2c0-0.1,0-0.2,0.1-0.4s0-0.3,0-0.3
		c0-0.2,0-0.3-0.1-0.4s-0.2-0.1-0.4-0.1c-0.1,0-0.2,0-0.3,0s-0.2,0-0.3,0.1l0.1-0.3c0.3-0.1,0.5-0.2,0.7-0.3s0.4-0.1,0.5-0.1
		c0.3,0,0.4,0.1,0.6,0.2s0.2,0.4,0.2,0.6h0c0.4-0.3,0.7-0.6,0.9-0.7s0.4-0.2,0.6-0.2c0.1,0,0.2,0,0.3,0s0.2,0.1,0.2,0.1
		c0.1,0.1,0.1,0.1,0.2,0.2S378.9,185.4,378.9,185.6z M383.8,185.8c0,0.3-0.1,0.6-0.3,0.9s-0.5,0.4-0.9,0.6c-0.3,0.1-0.6,0.2-0.9,0.3
		s-0.7,0.1-1,0.2c0,0.5,0.1,0.9,0.3,1.2s0.5,0.4,0.8,0.4c0.3,0,0.6-0.1,0.9-0.2s0.5-0.4,0.7-0.7l0.3,0.2c-0.3,0.4-0.6,0.7-1,1
		s-0.8,0.4-1.2,0.4c-0.6,0-1-0.2-1.3-0.5s-0.5-0.8-0.5-1.4c0-0.4,0.1-0.8,0.2-1.2s0.3-0.7,0.6-1c0.2-0.3,0.5-0.5,0.9-0.7
		s0.7-0.3,1.2-0.3c0.5,0,0.8,0.1,1,0.3S383.8,185.5,383.8,185.8z M382.9,185.7c0-0.1,0-0.2-0.1-0.3s-0.1-0.1-0.1-0.2
		c-0.1,0-0.1-0.1-0.2-0.1s-0.1,0-0.2,0c-0.4,0-0.8,0.2-1.1,0.6s-0.5,1-0.6,1.6c0.2,0,0.5-0.1,0.8-0.1s0.5-0.1,0.7-0.2
		c0.3-0.1,0.5-0.3,0.6-0.5S382.9,186,382.9,185.7z M386.7,185.4l-0.9,4c-0.2,0.7-0.5,1.3-1,1.8s-1,0.7-1.5,0.7
		c-0.3,0-0.5-0.1-0.6-0.2s-0.2-0.2-0.2-0.4c0-0.1,0-0.3,0.1-0.4s0.2-0.2,0.4-0.2c0.1,0,0.2,0,0.3,0.1s0.1,0.1,0.2,0.2
		c0,0.1,0.1,0.1,0.2,0.2s0.1,0.2,0.1,0.2c0.3,0,0.5-0.2,0.6-0.5s0.3-0.8,0.5-1.4l0.9-4.2h-1l0.1-0.4h0.9l0.1-0.3
		c0.1-0.4,0.2-0.7,0.4-1s0.4-0.6,0.6-0.8c0.2-0.2,0.5-0.4,0.7-0.5s0.5-0.2,0.8-0.2c0.3,0,0.5,0.1,0.6,0.2s0.2,0.2,0.2,0.4
		c0,0.1,0,0.3-0.1,0.4s-0.2,0.2-0.4,0.2c-0.1,0-0.2,0-0.3-0.1s-0.1-0.1-0.2-0.2c-0.1-0.1-0.1-0.2-0.2-0.2s-0.1-0.2-0.1-0.2
		c-0.2,0-0.4,0.2-0.6,0.4s-0.3,0.8-0.5,1.4l-0.1,0.5h1.2l-0.1,0.4H386.7z M391.8,185.8c0,0.3-0.1,0.6-0.3,0.9s-0.5,0.4-0.9,0.6
		c-0.3,0.1-0.6,0.2-0.9,0.3s-0.7,0.1-1,0.2c0,0.5,0.1,0.9,0.3,1.2s0.5,0.4,0.8,0.4c0.3,0,0.6-0.1,0.9-0.2s0.5-0.4,0.7-0.7l0.3,0.2
		c-0.3,0.4-0.6,0.7-1,1s-0.8,0.4-1.2,0.4c-0.6,0-1-0.2-1.3-0.5s-0.5-0.8-0.5-1.4c0-0.4,0.1-0.8,0.2-1.2s0.3-0.7,0.6-1
		c0.2-0.3,0.5-0.5,0.9-0.7s0.7-0.3,1.2-0.3c0.5,0,0.8,0.1,1,0.3S391.8,185.5,391.8,185.8z M390.9,185.7c0-0.1,0-0.2-0.1-0.3
		s-0.1-0.1-0.1-0.2c-0.1,0-0.1-0.1-0.2-0.1s-0.1,0-0.2,0c-0.4,0-0.8,0.2-1.1,0.6s-0.5,1-0.6,1.6c0.2,0,0.5-0.1,0.8-0.1
		s0.5-0.1,0.7-0.2c0.3-0.1,0.5-0.3,0.6-0.5S390.9,186,390.9,185.7z M396.9,185.6c0,0.1,0,0.2,0,0.3s-0.1,0.2-0.1,0.3
		c-0.1,0.1-0.1,0.2-0.2,0.2s-0.2,0.1-0.3,0.1c-0.2,0-0.3,0-0.4-0.1s-0.1-0.2-0.1-0.3c0-0.1,0-0.2,0.1-0.3s0.1-0.2,0.2-0.4
		c0,0-0.1,0-0.2,0s-0.2,0.1-0.3,0.1s-0.3,0.2-0.4,0.3s-0.3,0.3-0.5,0.5l-0.8,3.5h-0.9l0.7-3.2c0-0.1,0-0.2,0.1-0.4s0-0.3,0-0.3
		c0-0.2,0-0.3-0.1-0.4s-0.2-0.1-0.4-0.1c-0.1,0-0.2,0-0.3,0s-0.2,0-0.3,0.1l0.1-0.3c0.3-0.1,0.5-0.2,0.7-0.3s0.4-0.1,0.5-0.1
		c0.3,0,0.4,0.1,0.6,0.2s0.2,0.4,0.2,0.6h0c0.4-0.3,0.7-0.6,0.9-0.7s0.4-0.2,0.6-0.2c0.1,0,0.2,0,0.3,0s0.2,0.1,0.2,0.1
		c0.1,0.1,0.1,0.1,0.2,0.2S396.9,185.4,396.9,185.6z M401.9,185.6c0,0.1,0,0.2,0,0.3s-0.1,0.2-0.1,0.3c-0.1,0.1-0.1,0.2-0.2,0.2
		s-0.2,0.1-0.3,0.1c-0.2,0-0.3,0-0.4-0.1s-0.1-0.2-0.1-0.3c0-0.1,0-0.2,0.1-0.3s0.1-0.2,0.2-0.4c0,0-0.1,0-0.2,0s-0.2,0.1-0.3,0.1
		s-0.3,0.2-0.4,0.3s-0.3,0.3-0.5,0.5l-0.8,3.5h-0.9l0.7-3.2c0-0.1,0-0.2,0.1-0.4s0-0.3,0-0.3c0-0.2,0-0.3-0.1-0.4s-0.2-0.1-0.4-0.1
		c-0.1,0-0.2,0-0.3,0s-0.2,0-0.3,0.1l0.1-0.3c0.3-0.1,0.5-0.2,0.7-0.3s0.4-0.1,0.5-0.1c0.3,0,0.4,0.1,0.6,0.2s0.2,0.4,0.2,0.6h0
		c0.4-0.3,0.7-0.6,0.9-0.7s0.4-0.2,0.6-0.2c0.1,0,0.2,0,0.3,0s0.2,0.1,0.2,0.1c0.1,0.1,0.1,0.1,0.2,0.2S401.9,185.4,401.9,185.6z
		 M406.8,185.8c0,0.3-0.1,0.6-0.3,0.9s-0.5,0.4-0.9,0.6c-0.3,0.1-0.6,0.2-0.9,0.3s-0.7,0.1-1,0.2c0,0.5,0.1,0.9,0.3,1.2
		s0.5,0.4,0.8,0.4c0.3,0,0.6-0.1,0.9-0.2s0.5-0.4,0.7-0.7l0.3,0.2c-0.3,0.4-0.6,0.7-1,1s-0.8,0.4-1.2,0.4c-0.6,0-1-0.2-1.3-0.5
		s-0.5-0.8-0.5-1.4c0-0.4,0.1-0.8,0.2-1.2s0.3-0.7,0.6-1c0.2-0.3,0.5-0.5,0.9-0.7s0.7-0.3,1.2-0.3c0.5,0,0.8,0.1,1,0.3
		S406.8,185.5,406.8,185.8z M405.9,185.7c0-0.1,0-0.2-0.1-0.3s-0.1-0.1-0.1-0.2c-0.1,0-0.1-0.1-0.2-0.1s-0.1,0-0.2,0
		c-0.4,0-0.8,0.2-1.1,0.6s-0.5,1-0.6,1.6c0.2,0,0.5-0.1,0.8-0.1s0.5-0.1,0.7-0.2c0.3-0.1,0.5-0.3,0.6-0.5S405.9,186,405.9,185.7z
		 M410.7,189L410.7,189c-0.1,0.1-0.2,0.1-0.3,0.2s-0.2,0.2-0.4,0.3c-0.2,0.1-0.3,0.2-0.4,0.2s-0.3,0.1-0.5,0.1
		c-0.5,0-0.8-0.2-1.1-0.5s-0.4-0.8-0.4-1.4c0-0.4,0.1-0.8,0.2-1.2s0.3-0.7,0.6-1c0.2-0.3,0.5-0.5,0.9-0.7s0.7-0.3,1.1-0.3
		c0.2,0,0.4,0,0.7,0.1s0.4,0.1,0.5,0.2l0.4-1.7c0-0.1,0-0.2,0-0.2s0-0.1,0-0.2c0-0.1,0-0.2-0.1-0.3s-0.1-0.1-0.2-0.1
		c-0.1,0-0.2,0-0.3-0.1s-0.3,0-0.4,0l0.1-0.3l2-0.1l0,0.1l-1.4,5.9c0,0.1-0.1,0.2-0.1,0.4s0,0.2,0,0.3c0,0.2,0,0.3,0.1,0.4
		s0.2,0.1,0.4,0.1c0.1,0,0.1,0,0.3,0s0.2,0,0.3-0.1l-0.1,0.3c-0.3,0.1-0.5,0.2-0.7,0.3s-0.3,0.1-0.5,0.1c-0.2,0-0.4-0.1-0.6-0.2
		S410.7,189.3,410.7,189z M411.4,185.9c0-0.1,0-0.2-0.1-0.3s-0.1-0.2-0.2-0.2c-0.1-0.1-0.2-0.1-0.3-0.2s-0.3-0.1-0.4-0.1
		c-0.3,0-0.5,0.1-0.7,0.2s-0.4,0.4-0.6,0.6c-0.2,0.3-0.3,0.6-0.4,0.9s-0.1,0.7-0.1,1.1c0,0.2,0,0.4,0,0.5s0.1,0.3,0.1,0.4
		c0.1,0.1,0.1,0.2,0.3,0.3s0.3,0.1,0.5,0.1c0.2,0,0.4-0.1,0.6-0.2s0.4-0.3,0.7-0.6L411.4,185.9z M420.3,186.7c0,0.4-0.1,0.8-0.2,1.2
		s-0.3,0.7-0.6,1c-0.3,0.3-0.6,0.5-0.9,0.7s-0.8,0.3-1.2,0.3c-0.5,0-1-0.2-1.3-0.5s-0.5-0.8-0.5-1.4c0-0.4,0.1-0.8,0.2-1.2
		s0.3-0.7,0.6-1c0.2-0.3,0.5-0.5,0.9-0.7s0.7-0.3,1.2-0.3c0.6,0,1,0.2,1.4,0.5S420.3,186.1,420.3,186.7z M419.3,186.5
		c0-0.5-0.1-0.8-0.2-1s-0.4-0.3-0.7-0.3c-0.3,0-0.5,0.1-0.8,0.2s-0.4,0.4-0.6,0.8c-0.1,0.3-0.2,0.6-0.3,0.9s-0.1,0.7-0.1,1
		c0,0.5,0.1,0.8,0.2,1.1s0.4,0.4,0.7,0.4c0.3,0,0.5-0.1,0.8-0.3s0.4-0.4,0.5-0.7c0.1-0.3,0.2-0.6,0.3-0.9S419.3,186.9,419.3,186.5z
		 M424.9,185.6c0,0.1,0,0.2,0,0.3s-0.1,0.2-0.1,0.3c-0.1,0.1-0.1,0.2-0.2,0.2s-0.2,0.1-0.3,0.1c-0.2,0-0.3,0-0.4-0.1
		s-0.1-0.2-0.1-0.3c0-0.1,0-0.2,0.1-0.3s0.1-0.2,0.2-0.4c0,0-0.1,0-0.2,0s-0.2,0.1-0.3,0.1s-0.3,0.2-0.4,0.3s-0.3,0.3-0.5,0.5
		l-0.8,3.5h-0.9l0.7-3.2c0-0.1,0-0.2,0.1-0.4s0-0.3,0-0.3c0-0.2,0-0.3-0.1-0.4s-0.2-0.1-0.4-0.1c-0.1,0-0.2,0-0.3,0s-0.2,0-0.3,0.1
		l0.1-0.3c0.3-0.1,0.5-0.2,0.7-0.3s0.4-0.1,0.5-0.1c0.3,0,0.4,0.1,0.6,0.2s0.2,0.4,0.2,0.6h0c0.4-0.3,0.7-0.6,0.9-0.7
		s0.4-0.2,0.6-0.2c0.1,0,0.2,0,0.3,0s0.2,0.1,0.2,0.1c0.1,0.1,0.1,0.1,0.2,0.2S424.9,185.4,424.9,185.6z M427.9,189.2l-0.1,0.3
		c-0.3,0.1-0.5,0.2-0.7,0.3s-0.3,0.1-0.5,0.1c-0.3,0-0.5-0.1-0.6-0.2s-0.2-0.3-0.2-0.5c0-0.1,0-0.2,0-0.2s0-0.2,0.1-0.3l0.5-2.1
		c0-0.1,0.1-0.2,0.1-0.4s0-0.2,0-0.3c0-0.2,0-0.3-0.1-0.4s-0.2-0.1-0.4-0.1c-0.1,0-0.2,0-0.3,0s-0.2,0-0.3,0.1l0.1-0.3
		c0.3-0.1,0.5-0.2,0.7-0.3s0.4-0.1,0.5-0.1c0.3,0,0.5,0.1,0.6,0.2s0.2,0.3,0.2,0.5c0,0.1,0,0.1,0,0.2s0,0.2-0.1,0.3l-0.5,2.1
		c0,0.1-0.1,0.3-0.1,0.4s0,0.2,0,0.3c0,0.2,0,0.3,0.1,0.4s0.2,0.1,0.4,0.1c0.1,0,0.2,0,0.3,0S427.9,189.2,427.9,189.2z M428.3,182.9
		c0,0.2-0.1,0.3-0.2,0.5s-0.3,0.2-0.4,0.2c-0.2,0-0.3-0.1-0.4-0.2s-0.2-0.3-0.2-0.5c0-0.2,0.1-0.3,0.2-0.5s0.3-0.2,0.4-0.2
		c0.2,0,0.3,0.1,0.5,0.2S428.3,182.8,428.3,182.9z M431.7,189L431.7,189c-0.1,0-0.2,0.1-0.3,0.2s-0.2,0.2-0.4,0.2
		c-0.1,0.1-0.3,0.2-0.5,0.2s-0.3,0.1-0.5,0.1c-0.5,0-0.8-0.2-1.1-0.5s-0.4-0.8-0.4-1.4c0-0.4,0.1-0.8,0.2-1.2s0.4-0.7,0.6-1
		c0.2-0.3,0.5-0.5,0.9-0.7s0.7-0.3,1.1-0.3c0.2,0,0.5,0,0.7,0.1s0.4,0.1,0.5,0.2l0.9-0.2l0.1,0.1l-0.8,3.8c-0.1,0.6-0.3,1.1-0.5,1.5
		s-0.4,0.7-0.7,1c-0.3,0.2-0.5,0.4-0.9,0.5s-0.7,0.2-1.1,0.2c-0.3,0-0.5,0-0.7-0.1s-0.3-0.1-0.4-0.2s-0.2-0.1-0.2-0.2
		s-0.1-0.2-0.1-0.2c0-0.1,0-0.3,0.1-0.4s0.2-0.1,0.4-0.1c0.1,0,0.2,0,0.3,0.1s0.2,0.1,0.2,0.2c0.1,0.1,0.1,0.2,0.2,0.3
		s0.1,0.2,0.1,0.3h0.1c0.2,0,0.4,0,0.6-0.1s0.4-0.2,0.6-0.4c0.2-0.2,0.3-0.4,0.5-0.8S431.6,189.5,431.7,189z M432.4,185.9
		c0-0.1,0-0.2,0-0.3s-0.1-0.2-0.2-0.3c-0.1-0.1-0.2-0.1-0.3-0.2s-0.3-0.1-0.4-0.1c-0.3,0-0.5,0.1-0.7,0.2s-0.4,0.4-0.6,0.6
		c-0.2,0.2-0.3,0.5-0.4,0.9s-0.2,0.7-0.2,1.1c0,0.2,0,0.4,0,0.5s0.1,0.3,0.1,0.4s0.2,0.2,0.3,0.3s0.3,0.1,0.4,0.1
		c0.2,0,0.5-0.1,0.7-0.2s0.4-0.3,0.6-0.5L432.4,185.9z M436.9,189.2l-0.1,0.3c-0.3,0.1-0.5,0.2-0.7,0.3s-0.3,0.1-0.5,0.1
		c-0.3,0-0.5-0.1-0.6-0.2s-0.2-0.3-0.2-0.5c0-0.1,0-0.2,0-0.2s0-0.2,0.1-0.3l0.5-2.1c0-0.1,0.1-0.2,0.1-0.4s0-0.2,0-0.3
		c0-0.2,0-0.3-0.1-0.4s-0.2-0.1-0.4-0.1c-0.1,0-0.2,0-0.3,0s-0.2,0-0.3,0.1l0.1-0.3c0.3-0.1,0.5-0.2,0.7-0.3s0.4-0.1,0.5-0.1
		c0.3,0,0.5,0.1,0.6,0.2s0.2,0.3,0.2,0.5c0,0.1,0,0.1,0,0.2s0,0.2-0.1,0.3l-0.5,2.1c0,0.1-0.1,0.3-0.1,0.4s0,0.2,0,0.3
		c0,0.2,0,0.3,0.1,0.4s0.2,0.1,0.4,0.1c0.1,0,0.2,0,0.3,0S436.9,189.2,436.9,189.2z M437.3,182.9c0,0.2-0.1,0.3-0.2,0.5
		s-0.3,0.2-0.4,0.2c-0.2,0-0.3-0.1-0.4-0.2s-0.2-0.3-0.2-0.5c0-0.2,0.1-0.3,0.2-0.5s0.3-0.2,0.4-0.2c0.2,0,0.3,0.1,0.5,0.2
		S437.3,182.8,437.3,182.9z M442.9,189.1l-0.1,0.3c-0.3,0.1-0.5,0.2-0.7,0.3s-0.3,0.1-0.5,0.1c-0.3,0-0.5-0.1-0.6-0.2
		s-0.2-0.3-0.2-0.5c0-0.1,0-0.2,0-0.2s0-0.2,0.1-0.3l0.5-1.8c0-0.1,0.1-0.3,0.1-0.4s0-0.2,0-0.3c0-0.2-0.1-0.4-0.2-0.5
		s-0.3-0.2-0.5-0.2c-0.2,0-0.4,0.1-0.7,0.2s-0.5,0.3-0.7,0.6l-0.8,3.6h-0.9l0.7-3.2c0-0.1,0-0.2,0.1-0.3s0-0.3,0-0.4
		c0-0.2,0-0.3-0.1-0.4s-0.2-0.1-0.4-0.1c-0.1,0-0.2,0-0.3,0s-0.2,0-0.3,0.1l0.1-0.3c0.3-0.1,0.5-0.2,0.7-0.3s0.4-0.1,0.5-0.1
		c0.3,0,0.4,0.1,0.6,0.2s0.2,0.3,0.2,0.6h0c0.4-0.3,0.7-0.5,0.9-0.6s0.6-0.2,0.9-0.2c0.3,0,0.6,0.1,0.7,0.3s0.3,0.4,0.3,0.7
		c0,0.1,0,0.2,0,0.3s0,0.3-0.1,0.4l-0.4,1.6c0,0.1-0.1,0.2-0.1,0.4s0,0.2,0,0.3c0,0.2,0,0.3,0.1,0.4s0.2,0.1,0.4,0.1
		c0.1,0,0.2,0,0.3,0S442.8,189.2,442.9,189.1z"/>
</g>
<g>
	<defs>
		<rect id="SVGID_165_" x="367" y="58" width="61" height="64"/>
	</defs>
	<clipPath id="SVGID_166_">
		<use xlink:href="#SVGID_165_"  style="overflow:visible;"/>
	</clipPath>
	<path class="st82" d="M414,115.3C424,118,385,96,374,62"/>
</g>
<g>
	<defs>
		<rect id="SVGID_167_" x="367" y="58" width="61" height="64"/>
	</defs>
	<clipPath id="SVGID_168_">
		<use xlink:href="#SVGID_167_"  style="overflow:visible;"/>
	</clipPath>
	<path class="st83" d="M381.5,68.7L374,62l-2.1,9.8L381.5,68.7z"/>
</g>
<g>
	<defs>
		<rect id="SVGID_169_" x="367" y="58" width="61" height="64"/>
	</defs>
	<clipPath id="SVGID_170_">
		<use xlink:href="#SVGID_169_"  style="overflow:visible;"/>
	</clipPath>
	<path class="st84" d="M381.5,68.7L374,62l-2.1,9.8L381.5,68.7z"/>
</g>
</svg>
